<svg xmlns="http://www.w3.org/2000/svg" xml:space="preserve" width="297mm" height="210mm" style="shape-rendering:geometricPrecision; text-rendering:geometricPrecision; image-rendering:optimizeQuality; fill-rule:evenodd; clip-rule:evenodd"
viewBox="0 0 297 210"
 xmlns:xlink="http://www.w3.org/1999/xlink">
 <defs>
  <style type="text/css">
   <![CDATA[
    .str4 {stroke:black;stroke-width:0.1;stroke-opacity:0.501961}
    .str3 {stroke:black;stroke-width:0.1}
    .str1 {stroke:#003399;stroke-width:0.1}
    .str2 {stroke:#003399;stroke-width:0.2}
    .str5 {stroke:black;stroke-width:0.5}
    .str0 {stroke:#1F1A17;stroke-width:0.75}
    .fil3 {fill:none}
    .fil0 {fill:#1F1A17}
    .fil2 {fill:#75C5F0}
    .fil4 {fill:#96AEBE}
    .fil1 {fill:white}
    .fil6 {fill:#C2C1C1;fill-rule:nonzero}
    .fil7 {fill:white;fill-rule:nonzero}
    .fil8 {fill:black;fill-rule:nonzero}
    .fil5 {fill:white;fill-rule:nonzero;fill-opacity:0.501961}
   ]]>
  </style>
 </defs>
<symbol id="villes" viewBox="147.973 104.473 1.0539 1.0539">
 <circle class="fil0" cx="148.5" cy="105" r="0.526885"/>
</symbol>
<symbol id="Capitale" viewBox="147.219 103.719 2.5615 2.5615">
 <circle class="fil1 str0" cx="148.5" cy="105" r="0.905629"/>
</symbol>
 <g id="Plan_x0020_1">
  <metadata id="CorelCorpID_0Corel-Layer"/>
  <path class="fil2 str1" d="M28.0596 19.3157c-0.4168,0 -1.2524,-1.2234 -1.5055,-1.581 -0.3667,-0.5179 -0.4986,-0.9421 -0.3102,-1.581 0.1959,-0.6645 0.8642,-0.748 1.4781,-0.5392 0.8801,0.2995 1.5076,1.3373 1.5329,2.2664 0.0064,0.2367 -0.2903,0.9182 -0.2281,1.0236 0.2622,0.4448 -0.1148,0.4769 -0.5019,0.4569l-0.4653 -0.0457zm43.067 46.8632c0.2806,0.602 1.3818,-0.7983 1.5329,-1.0418 0.2148,-0.3464 0.1027,-1.056 -0.0365,-1.3891 -0.1333,-0.3187 -0.3502,-0.6688 -0.5109,-1.0053 -0.1771,-0.3706 -1.9251,-1.842 -1.3322,-2.1384 0.0464,0.3258 0.2682,0.7669 0.5475,0.3472 0.3399,-0.5105 1.0362,-1.8101 -0.219,-1.6084 -0.8231,0.1323 -1.0991,0.4294 -1.4599,1.1515 -0.4285,0.8579 0.0846,0.7648 0.219,1.4805 0.1238,0.6589 -0.4927,1.409 -0.4927,2.1202 0,0.5085 0.6517,1.9808 1.1861,2.0653l0.5657 0.0183zm-26.5332 22.4629c-0.1678,-0.3366 -0.6453,-0.8844 -0.6752,-1.2795 -0.0344,-0.4558 0.302,-0.7909 0.1095,-1.2611 -0.0901,-0.22 -0.2597,-0.3308 -0.073,-0.5118 0.2294,-0.2226 -0.219,-0.6836 -0.219,-0.9687 0,-0.288 0.2392,-0.9687 0.6022,-0.9687 0.2589,0 0.4561,0.6123 0.5657,0.8408 0.6221,1.2974 2.1208,2.113 2.0439,3.7286 -0.013,0.2736 -0.4096,1.226 -0.5657,1.4439 -0.1754,0.245 -1.3217,-0.3022 -1.5694,-0.4569l-0.219 -0.5666zm30.365 7.1738c-0.5154,0.1199 -0.9314,-0.0055 -1.0585,-0.5757 -0.0408,-0.1828 0,-0.4543 0,-0.6489 0,-0.3787 -0.1168,-0.7644 0.1004,-1.1149 0.1253,-0.2021 0.2601,-0.6495 0.5748,-0.4752 0.1439,0.0798 0.2171,0.4528 0.2738,0.6123 0.1173,0.3302 0.1227,0.7266 0.1642,1.0692 0.033,0.2718 0.2243,0.6429 0.0548,0.8865l-0.1095 0.2467zm59.3627 7.3749l-0.0913 0c-0.0298,-0.1791 -0.5586,-0.0523 -0.6752,0.0549 -0.0723,0.0664 -0.1425,0.1663 -0.219,0.2376 -0.2446,0.2276 -1.4368,0.7335 -0.8576,1.188 0.3331,0.2615 0.3627,0.5775 0.5109,0.9322 0.0566,0.1353 0.1893,0.2193 0.3285,0.2193 0.2556,0 0.243,-0.3654 0.3467,-0.5666 0.067,-0.1302 0.3788,-0.4812 0.4927,-0.5483 0.2387,-0.1406 0.5213,-0.0642 0.7664,-0.2559 0.2077,-0.1626 0.1371,-0.7596 -0.1094,-0.9139l-0.4927 -0.3473zm-47.0632 53.6807c0.0085,-0.139 0.096,-0.4026 0.0274,-0.5392 -0.0574,-0.1145 -0.1965,-0.177 -0.3194,-0.2285 -0.1386,-0.058 -0.3078,-0.0527 -0.438,-0.1279 -0.1246,-0.0721 -0.413,-0.2983 -0.5657,-0.2011 -0.1462,0.0932 -0.2457,0.3064 -0.3193,0.4661 -0.2514,0.546 0.2304,0.4529 0.5109,0.7128 0.0926,0.0859 0.1361,0.2221 0.219,0.3199 0.1637,0.1933 0.3846,0.1388 0.5292,-0.0549l0.3559 -0.3472zm0.4562 8.5172c0.237,-0.1382 0.5343,-0.0765 0.5931,-0.4021 0.0455,-0.2516 0.1558,-0.4955 0.2737,-0.7219 0.3598,-0.6904 -0.3966,-0.4726 -0.6752,-0.9687 -0.1819,-0.3237 -0.8294,0.3641 -0.9763,0.1188 -0.1082,-0.1805 0.0579,-0.5173 0.1734,-0.6672 0.1708,-0.2214 0.3167,-0.3387 0.0821,-0.5483 -0.291,-0.2602 -0.1358,-0.5232 0.1642,-0.658 0.2159,-0.0971 0.2281,-0.2441 0.4836,-0.2193 0.4369,0.0423 0.477,-0.0897 0.6113,-0.4935 0.7444,-0.5583 -0.3745,-1.2547 0.0822,-1.5718 0.2166,-0.1505 0.3702,0.0092 0.5839,0.0365 0.6324,0.0807 1.7954,-0.5523 1.4325,-1.2794 -0.2442,-0.4895 -0.4019,-0.6032 -0.958,-0.6032 -0.4185,0 -0.4671,-0.1602 -0.7847,-0.3381 -0.2028,-0.1405 -0.355,-0.4828 -0.6387,-0.5117 -0.2312,-0.0235 -0.3744,0.3046 -0.5292,0.4477 -0.242,0.2235 -0.2576,0.317 -0.2373,0.6489 0.0151,0.2458 -0.3093,0.319 -0.447,0.4569 -0.3094,0.3101 0.012,0.8383 0.1551,1.1972 0.0881,0.2208 0.1873,0.644 -0.0548,0.7768 -0.0561,0.0308 -0.4227,-0.0746 -0.5748,-0.064 -0.3813,0.0268 -0.7457,-0.4361 -1.0675,-0.3473 -0.5907,0.1629 0.0625,0.6842 0.3102,0.9048 -0.0087,0.3027 0.2081,0.3617 -0.292,0.4386 -0.8715,0.1339 -0.2837,0.9059 -0.1642,1.3891 0.0807,0.3267 0.1035,1.0354 0.0365,1.3617 -0.084,0.4087 0.0908,0.5133 0.4106,0.6123 0.1671,0.0518 0.3733,0.1165 0.4562,0.2924 0.1567,0.3327 0.5602,-0.2465 0.6752,0.0457 0.0987,0.2511 -0.1891,0.4914 0.0182,0.7585 0.0853,0.0821 0.1446,0.1401 0.219,0.2285 0.0765,0.0907 0.0259,0.3598 0.0091,0.4752 -0.014,0.0958 -0.0242,0.183 0.0365,0.265 0.0929,0.1252 0.3326,0.1399 0.4015,-0.0274 0.0308,-0.0747 -0.0243,-0.1941 -0.0274,-0.2833 -0.0033,-0.097 -0.0172,-0.2661 0.0365,-0.3473l0.1825 -0.4021zm4.48 0.8956c0.1724,-0.0863 0.4738,-0.2806 0.5566,-0.4752 0.0706,-0.1662 0.0005,-0.2841 -0.0274,-0.4387 -0.0682,-0.3787 0.2184,-0.8697 -0.2737,-1.0966 -0.1238,-0.0571 -0.1785,-0.0858 -0.2281,0.064 -0.1613,0.487 -0.8604,0.4799 -0.9489,0.9961 -0.0289,0.1684 0.1551,0.3454 0.1551,0.5483 0,0.3407 -0.0392,0.4758 0.3741,0.5301l0.3923 -0.128zm-11.8524 -5.9676c-0.1459,0 -0.2572,0.0012 -0.3741,0.0823 -0.0453,0.0315 -0.1146,0.1846 -0.1551,0.2376 -0.1259,0.1651 -0.5596,0.3856 -0.3285,0.6214 0.1804,0.1839 0.4566,0.0907 0.6022,-0.0914 0.105,-0.1312 0.1935,-0.2206 0.3558,-0.2467 0.1966,-0.0315 0.3353,-0.0394 0.4471,-0.2285 0.1421,-0.2406 0.0583,-0.4935 -0.2463,-0.4935l-0.3011 0.1188zm115.449 -1.06c0.3395,-0.4088 1.2209,-0.1986 1.4599,-0.6032 0.2951,-0.4998 0.771,-1.8738 0.1095,-2.2938 -0.5822,-0.3697 -1.7431,0.2726 -2.3723,0.1188 -0.2847,-0.0695 -1.3681,-0.4114 -1.469,0.1097 -0.1304,0.6729 -0.183,0.5874 -0.6844,0.8864 -0.7034,0.4193 -0.0851,0.8884 0.0092,1.4896 0.09,0.5733 1.2591,0.473 1.2591,0.8682 -0.1389,0.0694 -1.0415,-0.1045 -0.8942,0.265 0.0907,0.2273 0.6311,0.3556 0.8486,0.4204 0.3597,0.1071 0.6464,0.5088 0.9945,0.5666 0.6723,0.1116 0.2829,-0.2428 0.2829,-0.5666 0.2222,-0.1588 0.6342,-0.4783 -0.0183,-0.3473 -0.2179,0.0438 -0.7117,0.0445 -0.8485,-0.1736 -0.1031,-0.1646 0.1169,-0.2793 0.0639,-0.4295 -0.0698,-0.1981 -0.2446,-0.6681 0.1551,-0.6854 0.2491,-0.0108 0.276,0.3381 0.6752,0.3381l0.4288 0.0366zm11.8707 -6.4063c-0.3438,0.3061 -0.0509,0.5118 -0.7026,0.5118 -0.3704,0 -0.567,0.3339 -0.9398,0.0823 -0.6172,-0.4164 -1.5829,0.6147 -1.8066,1.1788 -0.1743,0.4397 -0.8108,0.3969 -1.1132,0.9413 -0.258,0.4647 -1.3636,1.1736 -1.8978,1.1424 -0.7109,-0.0416 -0.5945,0.0078 -1.1588,0.3838 -0.5064,0.3373 -0.8956,0.2004 -0.8577,-0.4295 0.014,-0.2333 0.2579,-0.969 0.4471,-0.987 0.0655,-0.0062 0.4873,-0.201 0.5201,-0.1919 0.0854,0.0239 0.1386,0.1897 0.2372,0.201 0.3,0.0345 0.5788,-0.1961 0.8577,-0.1553 0.382,0.056 1.3689,-0.3788 1.6059,-0.7128 0.1974,-0.2784 0.2935,-0.75 0.6204,-0.9139 0.2318,-0.1049 0.5183,-0.2866 0.6387,-0.5209 0.2425,-0.4722 0.535,-0.3718 0.9946,-0.329 0.4629,0.043 0.4178,-0.3263 0.6661,-0.5575 0.2032,-0.0358 0.3193,-0.2792 0.4653,-0.4112 0.1726,-0.1562 0.7272,-0.2441 0.9945,-0.4021 0.1445,-0.0853 0.3399,-0.1572 0.4471,-0.2924 0.3697,-0.4667 -0.0395,-0.2894 -0.2919,-0.1737 -0.6163,0.2828 -0.5451,-0.1371 -0.9763,-0.1371 -0.4917,0 -0.557,-0.1299 -0.9398,-0.2833 0,-0.2371 0.6722,-0.3069 0.7208,-0.6031 -0.4845,0 -1.1428,0.6827 -1.4325,-0.1097 -0.1804,-0.4933 -0.1281,-0.3961 0.2281,-0.329 0.8341,0.157 0.7359,-0.7996 1.615,-0.2559 0.6291,0.389 1.3689,-0.1653 1.9434,0.0914 0.4359,0.1947 0.5663,0.7431 0.9307,1.0327 0.5211,0.4143 0.5979,0.1848 1.1132,0.0183 0.4817,-0.1556 0.5396,-0.0274 0.9672,-0.0274 0.1887,0 0.8163,-0.2091 0.9489,-0.0549 0.1424,0.1654 -1.0672,0.503 -1.2683,0.6397 -0.5744,0.3907 -1.8897,-0.1298 -1.9982,0.4753 -0.1159,0.6469 -1.1959,0.5683 -1.5238,0.9412l-0.0547 0.2376zm-38.4679 -4.1032c-0.2202,-0.3779 -0.4155,-0.6611 -0.5019,-1.1241 -0.0683,-0.3656 -0.1409,-0.4999 -0.3011,-0.8225 -0.1643,-0.3306 0.0819,-0.7724 0,-1.1789 -0.0765,-0.3793 -0.5748,-0.6483 -0.5748,-1.0235 0.1634,0 0.8281,0.9844 0.9033,1.1606 0.1344,0.3153 0.1789,0.6034 0.2281,0.9504 0.0837,0.5903 0.4156,1.0473 0.4836,1.6085 0.036,0.2968 0.5496,1.2205 -0.1004,0.8955l-0.1368 -0.466zm-13.7047 -23.5139c0.2843,-0.3203 0.4836,-0.6144 0.4836,-1.0143 0,-0.7791 0.6392,-0.329 1.104,-0.329 1.1018,0 1.2334,1.3516 1.7336,2.0196 0.1334,0.1781 0.3671,-0.1037 0.1916,-0.265 -0.1654,-0.1522 -0.3284,-0.221 -0.3284,-0.4844 0,-0.7244 -0.7544,-0.8764 0.0365,-1.4896 0.349,-0.2705 -0.8337,0.2468 -0.876,0.2468 -0.1596,0 -0.0148,-0.3652 -0.0091,-0.4478 0.0438,-0.6238 0.7375,-0.817 1.0584,-1.2612 0.3224,-0.4461 -0.0875,-0.1657 -0.2737,0 -0.2434,0.2168 -0.5751,0.3562 -0.7756,0.5392 -0.1808,0.1652 -0.3682,0.8814 -0.5565,0.8682 -0.1697,-0.0118 -0.8112,-0.3239 -0.9855,-0.4112 -0.402,-0.2012 -0.3143,-0.4631 -0.3558,-0.8499 -0.0458,-0.4276 -0.7768,-0.2109 -0.5657,-0.7494 0.0758,-0.1936 0.0558,-1.0053 -0.2281,-1.0053 0,0.1503 -0.12,0.2376 -0.0548,0.4204 0.0411,0.1152 0.1211,0.2013 0.1278,0.329 0.0166,0.3172 -0.2467,0.4527 -0.4198,0.658 -0.4312,0.5116 0.9199,0.435 0.9672,0.7768 0.0584,0.4225 -0.219,0.8249 -0.1368,1.2337 -0.0411,0.2267 0.0234,0.9176 -0.365,0.8225 -0.7625,-0.1867 -0.0462,0.6297 -0.2555,0.9047 -0.3812,0.501 0.0358,0.2773 0.365,0.4478 0.217,0.1125 0.5334,0.6265 0.6752,0.8316 0.2774,0.4009 1.4714,0.5627 1.5876,0.987 0.0416,0.1517 0.0756,0.6551 0.1916,0.7402 0.1121,0.0821 0.2421,-0.4096 0.3011,-0.4935 0.2305,-0.3282 0.7091,-0.0456 0.9854,0.064 0.3427,0.1361 0.091,0.6797 0.1369,0.9687 0.0392,0.2463 0.2373,0.4837 0.3376,0.7128 0.2615,0.5976 0.0456,-0.8884 0.0456,-1.2154 0,-0.3029 -0.2521,-1.1832 -0.146,-1.3525 0.0854,-0.1365 0.7496,-0.4446 0.9216,-0.4387 0.4013,0.0138 0.5017,1.0597 0.739,0.9778l0.9621 -0.3323c0.0979,-0.0337 0.1228,-0.0331 0.0031,-0.0427 -0.5012,-0.0413 -0.978,0.0546 -0.8192,-0.6211 0.0117,-0.0501 -0.4361,-0.7263 -0.5566,-0.6123 -0.3387,0.3201 -0.4368,0.3889 -0.8576,0.5575 -0.2761,0.1105 -0.4432,0.309 -0.6114,0.53 -0.1828,0.24 -0.3817,-0.0456 -0.5657,-0.0456 -0.1676,0 -0.2208,0.3303 -0.3558,0.4203 -0.2614,0.1745 -0.6805,-0.4406 -0.8851,-0.5666 -0.8326,-0.5124 -1.6741,-0.8599 -2.0894,-1.6998l0.1186 -0.329zm32.7744 -32.6799c-0.1663,-0.2998 -0.5926,-0.378 -0.7208,-0.7311 -0.1352,-0.3726 -0.1871,-0.7902 -0.2464,-1.1789 -0.1468,-0.9627 -0.5884,-1.1715 0.3285,-1.8643 0.3506,-0.2648 0.4426,-0.7333 0.5292,-1.1423 0.0661,-0.3125 0.1936,-0.4317 0.3011,-0.6854 0.718,-0.9353 -0.0684,-1.1738 -0.6296,-1.7363 -0.1674,-0.1679 -0.494,-1.7226 -0.4562,-2.0288 0.0255,-0.0036 0.0355,-0.0092 0.0639,-0.0092 0.0343,0.1747 0.3745,0.5666 0.5109,0.6763 0.2152,0.1733 0.4841,0.0538 0.657,0.2559 0.1258,0.1472 0.1183,1.2243 0.5201,1.1058 0.2927,-0.0864 0.8186,-0.2993 1.1405,-0.192 0.3345,0.1115 0.2743,0.9089 0.6752,1.1424 0.1973,0.115 0.4682,0.0473 0.6387,0.2284 0.2687,0.2856 0.1059,0.3763 0.6661,0.3473 0.3525,0.0269 0.6703,-0.0937 1.0219,-0.0548 0.3913,0.0432 1.0264,-0.4549 1.3321,-0.0823 0.1022,0.1247 0.1648,0.2934 0.2829,0.4021 0.1991,0.183 0.4708,-0.0777 0.6661,-0.201 0.6057,-0.8198 0.6725,-1.9642 1.4507,-2.7873 0.403,-0.4264 0.4345,-0.8637 1.1497,-0.5209 0.2913,0.1397 1.5511,-0.1215 1.5511,0.0639 -0.7558,0.3235 -1.5988,-0.2357 -2.0986,0.2742l-0.9854 1.0053c-0.3363,0.3431 -0.1914,0.9342 -0.4562,1.2885 -0.2687,0.3597 -0.4192,0.8339 -0.6387,1.2063 -0.6691,1.1356 -0.5568,-0.3876 -1.3322,-0.5392 -0.3718,-0.0727 -0.7757,0.0541 -1.2044,0.0914 -0.5353,0.0465 -0.4202,0.4259 -1.0401,0.2194 -0.3241,-0.108 -0.6595,-0.5478 -0.8303,-0.0275 -0.1764,0.5377 -0.8485,0.3979 -1.0493,-0.0274 -0.2001,-0.424 -0.1586,-0.4857 -0.219,-0.9138 -0.7397,0 -0.4548,0.7826 -1.1588,1.3251 -0.1729,0.1797 -0.3998,0.3185 -0.4471,0.594 -0.0412,0.2395 0.0021,0.4895 -0.0912,0.7219 -0.1769,0.4402 -0.2864,0.8716 -0.1369,1.3617 0.1154,0.3787 0.4406,0.691 0.6022,1.0418 0.1612,0.3502 0.062,1.0182 0.4015,1.2337 0.3616,0.2296 1.119,-0.159 1.4964,-0.0091 0,0.2207 -0.9447,0.2113 -1.1497,0.4843 -0.1255,0.1671 -0.3926,0.7682 -0.584,0.7951 -0.0757,-0.1131 -0.1227,-0.9321 -0.2646,-0.9321l-0.2463 -0.2011zm-26.7982 9.4677c0.3603,0.0422 0.6975,-0.2744 0.7117,-0.6214 0.0198,-0.4857 0.0382,-0.4947 0.4653,-0.6854 0.2126,-0.095 0.4196,-0.2257 0.4563,-0.4935 0.1394,-1.0179 -0.3477,-0.5708 -0.9125,-0.393 -0.4422,0.1393 -0.8845,0.0989 -1.2591,0.4021 -0.2629,0.2129 -0.2351,0.4429 -0.5839,0.6306 -0.2966,0.1597 -0.8229,0.3806 -0.6114,0.8225 0.2558,0.5342 0.5671,0.5904 1.1223,0.5209l0.6113 -0.1828z"/>
  <g id="_222835472">
   <path id="_222832448" class="fil3 str2" d="M10 27.2115c0.1989,-0.195 0.3911,-0.3971 0.5966,-0.5848 0.3519,-0.3215 1.1011,0.3851 1.5146,0.3655 0.4982,-0.0236 0.6643,-0.6164 0.9489,-0.9139 0.5886,-0.6153 0.5296,-1.9649 0.9672,-2.7781 0.4734,-0.8797 0.0843,-1.1072 -0.3467,-1.8826 -0.8051,-1.4482 0.509,-1.1383 1.5876,-1.4256 0.6781,-0.1806 0.7868,-0.6744 1.2226,-1.0601 0.4436,-0.3926 0.9036,0.0001 1.2957,-0.7859 0.4314,-0.8649 0.1957,-1.246 1.2127,-1.2886 0.346,-0.0145 0.3827,0.4871 0.5839,0.7768 0.1271,0.183 0.4489,0.4313 0.5201,0.6123 0.186,0.4723 0.2599,1.5498 0.9033,1.0052 0.6225,-0.5269 0.1796,0.6229 0.803,0.3108 0.38,-0.1902 0.3604,0.2093 0.8029,-0.064 0.4841,-0.299 0.5813,0.5333 1.1953,0.2376 0.096,-0.0462 0.5971,-0.3416 0.6661,-0.1188 0.0546,0.1766 -0.1344,0.6598 0.1003,0.7128 0.4391,0.0991 0.3782,0.3505 0.7938,0.0366 0.6107,-0.4614 1.1556,-0.9308 1.6607,-0.064 0.1545,0.2652 0.6328,0.1802 0.885,0.3473 0.2031,0.1346 1.0381,0.8718 1.0949,1.0875 0.2445,0.9275 0.85,-0.1097 1.2318,-0.1097 0.2132,0 0.3315,0.0312 0.4836,0.1736 0.3003,0.2812 0.8166,-0.0355 0.8759,0.4295 0.0456,0.3579 0.5212,0.0947 0.6935,0.5941 0.3217,0.9321 1.7246,-0.4301 2.0529,0.4569 0.1614,0.4361 -0.1282,1.0969 0.1004,1.4713 0.3052,0.4997 0.7287,-0.2309 0.9763,-0.3838 0.5814,-0.3591 0.9363,0.0699 1.4872,-0.5118 0.2971,-0.3137 0.0281,-0.4467 -0.1824,-0.658 -0.3578,-0.3592 0.2499,-0.51 0.4288,-0.5757 0.4244,-0.1559 0.5662,-0.7488 0.8942,-1.0144 0.1994,-0.1614 0.9074,-0.6059 1.1131,-0.6123 0.5302,-0.0165 0.6517,0.4756 1.1132,0.1737 0.612,-0.4004 1.3289,0.2329 1.9343,0.3746 0.5486,0.1284 0.9958,0.4015 1.5147,0.5484 0.2824,0.0799 0.7788,0.2338 0.9854,-0.064 0.8527,-1.2289 1.0857,0.8185 2.5457,-0.3107 0.4172,-0.3227 0.9336,-0.1065 1.1861,-0.5392 0.0618,-0.106 0.3007,-0.2882 0.438,-0.2011 0.2341,0.1486 -0.3729,0.7951 0.2463,0.7951 0.2488,0 0.8193,-0.1188 0.9216,0.2285 0.1223,0.4152 -0.2397,0.7866 0.2464,1.124 0.7863,0.5459 1.681,-1.1278 2.1077,0.0731 0.2129,0.5993 0.6538,0.2716 1.0949,0.393 0.3712,0.1021 0.8288,0.4469 0.9398,0.8134 0.096,0.3171 0.1152,0.4518 -0.1546,0.7219 -0.1874,0.1877 -0.6302,0.4846 -0.3832,0.6214 0.5529,0.3062 0.394,0.7804 0.4197,1.2612 0.032,0.5981 0.2906,0.9504 0.9307,0.6397 1.1426,-0.5546 0.0883,1.7891 1.8066,1.2063 1.0424,-0.3535 1.347,-0.0817 1.1496,0.9687 -0.0522,0.278 0.146,0.2741 0.146,0.4569 0,0.3089 -0.7985,0.4691 -0.4014,1.0236 0.4571,0.6383 -0.3303,1.0882 -0.1095,1.7546 0.0781,0.236 0.5474,0.1337 0.5474,0.4752 0,0.2845 -0.7236,0.605 -0.4197,0.7676 0.5678,0.3039 0.8854,0.0314 0.511,0.6763 -0.4014,0.6914 0.0467,0.6628 0.4744,1.0784 0.2546,0.2474 -0.0029,0.6762 0.6022,0.6762 1.6576,0 0.5366,1.5109 1.1314,2.0654 0.5097,0.4751 0.365,0.6284 0.365,1.0783 0,0.6549 0.6953,-0.0694 0.8029,0.2559 0.1525,0.4609 0.1994,1.6263 0.0183,2.0105 -0.9737,2.0647 4.111,2.48 3.8139,1.2429 -0.0782,-0.3258 -1.1579,-1.2596 -0.3467,-1.2063 0.357,0.0234 2.2119,0.3573 1.5511,-0.4569 -0.5044,-0.6215 0.0823,-1.5489 0.8577,-1.6085 0.0609,-0.0046 0.0599,-0.098 0,-0.1096 -1.1105,-0.2164 0.0987,-1.2018 -0.2555,-1.3708 -0.9871,-0.4709 1.2136,-0.8526 1.4234,-0.9139 0.0664,-0.0194 0.0182,-0.1115 0.073,-0.1462 0.4678,-0.2965 -0.0388,-1.2711 0.8941,-0.1462 0.5766,0.6952 0.9617,0.6989 1.4417,1.0418 0.7074,0.5053 0.4498,0.5293 0.7299,1.3708 0.535,1.6072 1.0337,-0.8311 1.8978,-0.0183 0.3119,0.2934 0.3659,0.6224 0.6205,0.8773 0.5237,0.5245 0.3902,-0.5547 0.6569,-0.5849 0.9184,-0.1041 1.3844,1.3117 2.0256,0.5849 0.2515,-0.2851 0.4042,-0.1951 0.6022,0.1097 0.3366,0.5182 0.5752,-0.1292 0.7664,-0.1828 0.5424,-0.1522 0.584,1.1555 1.3322,0.7494 0.6305,-0.3422 0.4591,0.6382 0.8759,0.4569 0.4254,-0.185 0.5613,0.4247 0.6934,0.6946 0.3332,0.6806 1.8517,-0.4203 1.2957,0.7676 -0.4593,0.9813 2.5183,0.4062 2.5183,1.5901 0,0.6693 -0.5461,0.7276 -0.1825,1.4988 0.4778,1.0132 -0.6285,0.4937 -0.365,1.3525 0.1254,0.4088 0.4185,1.0519 0.292,1.4622 -0.093,0.3016 -0.7016,0.0599 -0.8212,0.329 -0.0372,0.0837 0.2932,1.7035 0.438,1.8277 0.5861,0.5028 0.1642,0.9269 0.1642,1.6084 0,0.3899 0.4073,0.9827 0.4927,1.4805 0.2022,1.1781 1.1337,1.3696 1.1862,2.7051 0.0473,1.2034 1.1947,0.5908 1.8978,1.1149 0.995,0.7417 0.3859,0.0598 1.3504,0.1645 0.8346,0.0906 0.1724,0.4881 1.0949,-0.1097 0.2471,-0.1601 0.5657,0.0081 0.5657,0.2742 0,0.359 -0.6095,0.6017 -0.3102,1.0052 0.355,0.4785 0.6838,0.2883 0.6387,1.0418 -0.079,1.3201 -0.592,1.2686 0.073,2.5589 0.1548,0.3004 1.3672,1.6971 1.6606,1.5901 0.7882,-0.2875 0.4454,-1.5089 1.4781,-0.4021 0.5482,0.5875 1.3509,-0.4264 1.7518,0.2559 0.4459,0.7589 -0.2608,0.6595 0.7665,1.0235 0.5229,0.1852 0.5995,0.7254 0.9671,0.9687 0.7178,0.4751 1.4356,0.9505 2.1534,1.4256 0.5991,0.3966 1.6109,-0.0077 1.7883,0.9139 0.0575,0.2989 0.5923,0.6087 0.8029,0.987 0.2661,0.4781 1.0303,-0.2772 1.5329,0.7494 0.1916,0.3914 1.1361,0.9989 1.5694,1.4804 0.3515,0.3906 1.1609,1.1647 1.3139,1.5719 0.2695,0.7173 1.0792,0.3383 1.5146,0.9504 0.3162,0.4447 0.6326,0.8896 0.9489,1.3343 0.4417,0.6211 0.8658,-0.1128 1.2226,0.2193 0.3841,0.3575 -0.0921,0.7602 0.438,1.0052 0.9623,0.4449 1.3122,0.2893 1.7701,1.4074 0.2189,0.5347 -0.3587,0.7724 0.3467,1.2794 0.7616,0.5473 0.8366,1.5615 1.0584,2.3943 0.3185,1.1959 1.4105,0.6962 2.1168,1.7181 0.1705,0.2467 0.6036,0.4884 0.6752,0.7494 0.2826,1.0296 0.2854,0.5151 0.9672,0.987 0.5277,0.3653 0.4623,0.5361 0.8759,0.9504 0.2541,0.2545 0.5693,-0.4407 0.6935,0.4204 0.1287,0.8927 0.5039,0.1559 0.9854,0.1096 0.4555,-0.0438 0.3081,0.5544 0.4744,0.8042 0.2163,0.325 0.4477,-0.3097 0.7117,-0.1645 0.3484,0.1916 0.4449,1.0836 1.0219,1.2612 0.2898,0.0892 0.6058,-0.0871 0.9307,-0.0731 0.4836,0.0209 0.9765,0.7576 1.4051,0.0731 0.3586,-0.5728 0.591,-0.5437 0.9855,-0.8773 0.0494,-0.0418 0.089,-0.0848 0.1216,-0.1279 0.2283,-0.3025 0.1227,-0.6261 0.7725,-0.786 0.4749,-0.1169 1.5204,0.4569 2.2081,0.4569 1.1419,0 -0.4495,-2.8 -0.6752,-3.2716 -0.2955,-0.6174 0.5292,-0.3408 0.5292,-1.0784 0,-0.7357 -0.1082,-1.0138 0.2737,-1.6632 0.3107,-0.5284 0.2026,-1.1734 0.7482,-1.517 0.3461,-0.2179 0.814,0.1288 0.9307,-0.1097 0.989,-2.0198 3.5459,0.1307 4.8906,-0.5118 1.6046,-0.7667 1.8331,0.9139 3.3577,0.9139 1.0615,0 1.7339,0.0477 2.3723,-0.8042 0.503,-0.6712 0.8866,0.0177 1.4781,-0.4021 1.4763,-1.0479 3.3911,-0.4825 3.6497,1.6815 0.0646,0.5407 2.5376,1.4546 2.9197,1.5901 0.5102,0.1809 0.4431,0.7813 0.8395,0.9505 0.7846,0.3349 1.5693,0.6702 2.354,1.0052 0.9696,0.414 1.3816,-1.4582 2.1716,-0.201 0.5026,0.7999 1.6927,0.0722 2.0438,0.6945 0.5996,1.0627 1.9667,-0.0738 3.0657,0.7128 0.7579,0.5425 1.6174,0.0121 2.4636,0.3656 0.5119,0.2138 0.7713,0.3272 1.0065,0.349 0.3024,0.0281 0.5654,-0.0948 1.2745,-0.349 0.9956,-0.3569 0.736,-0.4021 1.5147,0.1827 0.3946,0.2964 2.1646,0.3683 2.4635,0.0183 0.5594,-0.6549 -0.6161,-1.5302 0.6934,-1.9191 0.3664,-0.1088 0.6504,-0.1147 1.0037,-0.2011 0.3949,-0.0966 0.8134,-0.0697 1.2044,-0.1827 0.362,-0.1047 0.8355,-0.285 1.0767,0.0548 0.0729,0.1027 0.1369,0.859 0.2372,0.859 0.2166,0 0.4486,-0.3472 0.7664,-0.3472 0.2118,0 1.2357,0.3404 1.3322,0.5117 0.3891,0.6903 0.645,0.6428 1.3321,0.8773 0.602,0.2055 0.6456,0.5491 1.0584,0.8591 0.5044,0.3788 1.586,0.1566 2.1898,0.5118 0.5924,0.3485 0.5406,0.705 1.3321,0.6762 1.021,-0.0372 1.3397,0.1878 2.0439,0.7494 1.0404,0.8298 1.7077,-0.7481 2.354,-0.4021 0.369,0.1975 0.7196,0.4281 1.0795,0.6422"/>
   <path id="_222835520" class="fil3 str2" d="M214.505 117.557c0.9318,-0.3506 1.2924,-2.0509 1.5876,-2.9062 0.2555,-0.7403 0.7117,-1.1237 0.7117,-1.9739 0,-0.4612 0.4612,-0.6676 0.6569,-1.0601 0.2293,-0.4598 0.0546,-1.5117 0.7117,-1.6632 0.9384,-0.2163 0.7972,-1.3078 1.2774,-1.6816 0.8283,-0.6449 0.4111,-2.142 0.1095,-2.9061 -0.0179,-0.0454 -0.023,-0.0488 -0.073,-0.0548 -0.3653,-0.0443 -1.0364,-0.6413 -1.2226,-0.859 -0.1421,-0.1661 -0.2568,-0.4692 -0.2738,-0.6946 -0.0095,-0.1267 -0.1347,-0.5812 -0.1642,-0.6762 -0.158,-0.5076 -0.3285,-0.8924 -0.3285,-1.5902 0,-0.2717 -1.056,-0.8917 -1.1861,-1.1514 -0.1292,-0.258 0.0521,-0.6223 -0.0913,-0.8042 -0.0966,-0.1225 -0.8941,-0.6584 -0.8941,-0.8773 0,-0.4724 -0.2265,-0.5901 0,-1.0053 0.4641,-0.8508 -0.2054,-2.0314 -0.3468,-2.8878 -0.0957,-0.5794 -0.1374,-1.2229 -0.0547,-1.5719 0.182,-0.7677 0.1825,-1.6433 0.1825,-2.5223 0,-0.0584 -2.1181,-1.303 -0.9489,-1.9008 0.427,-0.2183 -0.3394,-0.1374 -0.438,-0.5118 -0.1057,-0.4012 0.8626,-0.9278 0.2007,-1.3342 -0.9493,-0.5829 -2.354,0.4344 -2.354,-1.2977 0,-0.2739 -1.2622,-0.9687 -1.5146,-0.9687 -0.9582,0 -0.7281,-0.4568 -1.4417,-0.7494 -0.3699,-0.1516 -0.6516,0.2198 -1.0401,-0.0183 -0.6086,-0.373 -1.1741,-0.6762 -1.9344,-0.6762 -0.3529,0 -0.6783,-0.078 -1.0401,-0.0366 -0.3568,0.0409 -0.5739,0.519 -0.584,0.5666 -0.1438,0.6731 -1.7153,-0.059 -1.7153,0.5118 0,0.3333 0.2894,0.6711 -0.0913,0.8956 -0.8091,0.4772 -0.5918,-0.1109 -1.2591,-0.1462 -0.0816,-0.0043 -0.1808,-0.0729 -0.2187,-0.1463 -0.0501,-0.0971 -0.1024,-0.1857 -0.146,-0.2833 -0.0702,-0.1572 0.0657,-0.3988 0.0365,-0.5757 -0.017,-0.1032 -0.1302,-0.1853 -0.1916,-0.2559 -0.096,-0.1103 -0.1791,-0.1348 -0.3011,-0.1645 -0.1389,-0.0339 -0.2858,-0.0122 -0.4288,-0.0183"/>
   <path id="_222828224" class="fil3 str2" d="M81.5282 42.528c0.6705,-0.1975 0.2011,-1.0967 1.2044,-1.0967 1.2689,0 2.2422,1.7151 3.6315,1.0967 0.4926,-0.2193 0.9854,-0.4387 1.4781,-0.658 1.0712,-0.4769 1.3386,-1.2891 2.5913,-1.645 1.1074,-0.3146 2.5927,0.1127 3.0475,-1.316 0.1863,-0.5855 -0.1643,-1.0995 -0.1643,-1.6815 0,-0.7599 0.1948,-1.4121 0.7847,-1.7729 1.69,-1.0338 2.6347,-3.7784 4.5074,-4.8618 0.5766,-0.3335 1.7097,-0.7187 1.9343,-1.3708 0.6423,-1.864 1.9461,-1.6632 3.5767,-1.6632 1.9996,0 1.9595,-4.1895 4.0512,-1.645 1.296,1.5766 1.401,0.2758 3.0474,0.4021 0.5706,0.0438 1.0374,0.5196 1.6424,0.3473 0.8204,-0.2336 1.2952,-1.1253 2.1898,-0.9139 0.5556,0.1313 1.2203,0.0264 1.6971,-0.1645 0.6849,-0.2743 0.7571,-0.8196 1.2774,-1.188 0.3243,-0.2296 0.7492,-0.1689 1.0037,-0.5118 0.4905,-0.6606 0.0689,-1.3563 0.9489,-1.9008 0.6087,-0.3767 1.124,-0.3788 1.7518,-0.6214 0.5921,-0.2288 0.9697,-1.5776 1.4234,-2.1202 0.524,-0.6266 1.3002,-1.875 2.0074,-2.2298 0.4947,-0.2482 1.1838,-1.1582 1.6241,-1.5719 0.3611,-0.3392 0.8518,-0.7059 1.0766,-1.1515 0.3191,-0.6327 0.6979,-1.4839 1.3139,-1.8825 0.5027,-0.3253 0.992,-0.3346 1.0767,-1.0967 0.0504,-0.4539 0.2676,-0.8734 0.4014,-1.3102"/>
   <path id="_222834512" class="fil3 str2" d="M100.543 29.222c1.3781,0.1293 1.4451,1.4012 2.9745,1.6633 1.2477,0.2138 2.1122,0.5061 3.1205,1.2611 0.7454,0.5581 1.4483,1.2098 2.427,1.2794 1.3485,0.0959 2.1168,-0.2765 2.6643,1.2429 0.3364,0.9333 2.3102,0.6202 3.1205,1.1149 0.4648,0.2838 2.1614,1.0711 2.719,1.2246 0.8545,0.2353 1.6697,-0.5176 2.573,-0.1828 2.2076,0.8184 2.4497,-0.2284 3.7775,-1.4073 0.439,-0.3897 0.8196,-0.0227 1.2044,0.2193 0.7408,0.4659 1.7701,-0.3766 2.7737,-0.0548 1.9413,0.6225 3.5099,-1.2019 5.4928,-1.316 0.832,-0.0478 1.9029,-0.1293 2.6825,0.2193 0.9462,0.4231 0.4261,0.975 1.7701,0.8591 0.5925,-0.0511 0.7419,-0.2531 1.2044,-0.5484 0.3578,-0.2284 0.4375,-0.201 0.8029,-0.201 0.5959,0 0.842,-0.7397 1.4599,-0.9504 0.4796,-0.1636 0.6415,0.2775 1.0767,0.329 0.7039,0.0834 0.8428,-1.0243 1.5511,-0.2377 0.7291,0.8097 1.2915,-0.7557 2.0621,-0.4021 0.5609,0.2574 0.9713,0.6208 1.5876,0.8225 0.6222,0.2036 1.5875,0.0613 2.2445,0.1097 0.5702,0.042 0.803,-0.0423 0.803,0.6763 0,1.219 0.8181,1.2957 1.7518,1.7911 0.5851,0.3105 1.1443,0.8956 1.8066,0.8956 1.3307,0 2.2437,-0.7183 3.7044,-0.4021 1.2131,0.2626 1.6862,1.157 2.7556,1.5536 1.7163,0.6365 2.8488,0.4622 4.6898,0.6032 1.1643,0.0891 3.574,0.1337 4.3796,0.9869 0.6752,0.7151 0.8652,2.1001 1.9161,2.2847 0.8955,0.1573 1.5745,0.0972 2.2446,0.8408 0.7587,0.8419 1.6581,1.273 2.5183,1.9191 0.8536,0.6411 3.1292,-0.145 4.0511,0.859 0.4262,0.4642 0.1569,1.5184 0.7482,1.7364 1.2383,0.4567 1.2829,0.8361 2.1716,1.1697 1.083,0.4065 0.2251,1.3719 1.1861,1.8278 1.2713,0.603 2.5426,1.2063 3.8139,1.8094 1.3101,0.6215 2.1776,0.8343 3.1753,1.7912 1.8854,1.8083 3.8674,-0.065 5.876,0.7311 0.8216,0.3256 0.7949,1.142 1.8978,0.5849 0.9521,-0.4809 1.6244,0.0396 2.5183,0.2924 0.4906,0.1387 0.9732,0.3047 1.4598,0.4569 0.3398,0.1063 0.5932,-0.6214 1.1679,-0.6214 0.3339,0 0.5499,0.7742 1.0037,0.4387 0.8101,-0.599 0.8902,-1.8826 2.0986,-1.8826 0.8085,0 0.8199,1.7061 2.0073,0.4569 1.0666,-1.1222 3.4366,0.8591 4.9088,0.8591 1.4172,0 2.7215,-0.5584 3.7592,-1.4805 0.4712,-0.4187 -0.1018,-1.2126 0.9124,-1.6815 0.8788,-0.4063 0.5489,-0.3924 1.2227,-0.9504 0.7646,-0.6332 1.9167,0.1889 2.6278,-0.6763 0.7158,-0.871 0.3354,-1.269 0.6934,-2.175 0.0538,-0.1361 0.5346,-2.9923 1.2956,-1.5536 0.7034,1.3298 0.7324,1.2612 2.2081,1.2612 2.7334,0 1.6811,1.2873 2.7008,3.0888 2.2722,4.0144 4.6443,-4.1438 6.3322,-1.9008 0.8219,1.0923 0.634,2.3706 2.135,3.0706 0.5389,0.2513 1.4551,0.4514 1.7154,1.0601 0.2424,0.5669 -0.0769,1.1891 0.3102,1.7363 0.6625,0.9364 0.8353,1.8502 0.6752,3.0158 -0.1212,0.883 -0.7643,1.5015 -0.2007,2.4126 0.2683,0.4338 0.1531,0.9113 0.4197,1.2611 0.6977,0.9155 -0.0072,1.204 0.1277,2.1202 0.1323,0.8989 0.7508,1.7977 1.6606,2.0836 0.0361,0.0113 -0.0897,0.0222 -0.0547,0.0366 1.1037,0.4537 1.1314,0.9987 1.1314,2.1202 0,0.7973 0.4835,1.3449 0.9672,1.9008 0.7783,0.8945 0.2818,1.9161 0.6022,3.034 0.3839,1.3393 -0.0737,2.2764 0.1459,3.619 0.1672,1.0219 0.3564,2.9715 0.1056,3.9755 -0.2384,0.9544 -1.2376,1.5045 -1.2376,2.2932 0,0.8021 0.9386,1.3707 1.092,2.2568 0.3857,2.2269 1.0891,7.9833 -2.7664,6.9888 -1.882,-0.4854 0.5486,-3.4606 -1.5652,-4.4772 -0.7561,-0.3636 -0.8623,-1.2998 -1.456,-1.7108 -0.9372,-0.6489 -1.9695,-0.4449 -3.0212,-0.182"/>
   <path id="_222836360" class="fil3 str2" d="M126.906 88.1849c0.2636,0.1096 0.5255,0.2237 0.7908,0.3289 0.5544,0.2199 0.7493,-0.812 1.0584,0.2559 0.258,0.8916 1.1117,0.2742 1.7153,0.2742 0.4969,0 0.63,0.5726 0.73,1.0235 0.0733,0.3305 1.578,0.9783 1.9708,0.9321 0.6752,-0.0795 0.9973,0.6777 1.5329,0.1097 0.8026,-0.8512 0.6051,0.2376 1.1314,0.2376 0.899,0 1.3354,-0.8822 1.7153,0.5301 0.2032,0.7554 0.2715,0.7994 0.9125,1.6997 0.5131,0.7207 1.8926,0.7521 2.3175,1.5171 0.2285,0.4113 -0.2202,2.3107 -0.1069,2.4807 0.5566,0.835 0.7826,0.8098 0.182,1.7108 -0.4943,0.7416 -0.0364,1.1293 -0.0364,1.9656 0,1.1163 -0.424,0.8565 -0.9828,1.6016 -0.9595,1.2793 0.4225,1.5797 -1.6016,2.6572 -1.5519,0.8261 -0.0601,3.0071 -1.456,4.2588 -0.5748,0.5154 -1.5114,0.275 -1.82,1.2012 -0.2288,0.6867 0.0556,1.0364 -0.728,1.8928 -1.167,1.2756 0.985,1.5519 0.9292,3.0857 -0.0453,1.2447 0.0366,1.7914 0.438,2.9061 0.293,0.8137 -0.3164,1.4421 -0.292,2.2482 0.0393,1.2944 1.6645,1.743 2.573,2.3029 0.4623,0.2849 0.5063,0.9376 0.7847,1.3343 0.3403,0.4849 1.1472,0.9456 1.6971,1.188 1.4326,0.6315 8.6041,-0.1701 8.9782,0.6762 0.6001,1.3574 2.06,0.0697 2.8833,1.4988 0.8298,1.4406 3.3478,0.1589 4.6406,-0.6088"/>
   <path id="_222836336" class="fil3 str2" d="M164.306 86.5599c-0.0009,0.3466 0.0167,0.6939 -0.0029,1.04 -0.0268,0.4735 -0.204,0.8874 -0.0912,1.3526 0.1002,0.4133 0.4153,0.544 0.6934,0.8042 0.5792,0.5418 0.4211,3.2516 0.584,4.1124 0.1782,0.9413 0.6817,1.4212 1.3504,2.0288 0.6855,0.6229 1.0659,0.827 1.2956,1.7729 0.1446,0.5955 -0.221,1.8974 -0.0157,2.4152 0.6372,1.6076 1.1757,2.8691 0.9464,4.6592 -0.1367,1.0667 -0.0523,2.1235 -0.4732,3.1304 -0.5934,1.4196 -0.5824,2.719 -0.5824,4.2588 0,1.3407 1.0557,3.7865 1.7836,4.914 0.3041,0.4711 0.3209,1.0373 0.6552,1.4196 0.4778,0.5463 1.2949,0.682 1.82,1.2376 0.1427,0.151 0.3944,0.4851 0.4732,0.6916 0.1027,0.2688 0.163,0.5931 0.4004,0.8008"/>
   <path id="_222825560" class="fil3 str2" d="M168.135 97.6708c3.3736,-0.1787 3.3374,0.6936 5.3351,2.8884 1.3109,1.4403 3.1552,2.0041 4.5136,3.4944 1.0559,1.1584 1.5359,2.3824 2.9484,3.3488 1.2545,0.8584 4.7924,2.5595 5.3872,3.7492 0.3451,0.6904 0.1736,1.4726 -0.0364,2.184 -0.2788,0.9443 0.7755,1.5553 1.1284,2.4024"/>
  </g>
  <use x="51.1855" y="23.9563" width="1.0539" height="1.0539" xlink:href="#villes"/>
  <use x="60.9407" y="167.554" width="1.0539" height="1.0539" xlink:href="#villes"/>
  <use x="112.228" y="159.292" width="1.0539" height="1.0539" xlink:href="#villes"/>
  <use x="128.837" y="146.599" width="2.5615" height="2.5615" xlink:href="#Capitale"/>
  <use x="118.999" y="142.911" width="1.0539" height="1.0539" xlink:href="#villes"/>
  <use x="123.039" y="139.235" width="1.0539" height="1.0539" xlink:href="#villes"/>
  <use x="98.8695" y="138.871" width="1.0539" height="1.0539" xlink:href="#villes"/>
  <use x="110.554" y="110.625" width="1.0539" height="1.0539" xlink:href="#villes"/>
  <use x="141.64" y="97.4115" width="1.0539" height="1.0539" xlink:href="#villes"/>
  <use x="172.98" y="161.039" width="1.0539" height="1.0539" xlink:href="#villes"/>
  <path class="fil4 str3" d="M19.1845 156.654c2.4634,0.2198 4.7221,2.5124 6.8313,3.6348 0.8058,0.3691 1.3746,1.1573 2.0255,1.7181 0.806,0.6946 4.1605,3.9502 2.8286,4.9897 -0.3109,0.4106 -1.015,1.018 -0.1004,1.2977 0.2098,0.0642 0.9287,0.517 0.9946,0.3199 0.0776,-0.2324 -0.3266,-0.6304 -0.1734,-1.0053 0.1065,-0.2605 0.7139,-0.2559 0.9672,-0.2559 0.4378,0 1.6593,0.9447 2.0347,1.1972 0.2441,0.1643 0.8406,0.8302 1.1405,0.5757 0.2207,-0.1872 0.1534,-0.7339 0.5657,-0.7676 0.2637,-0.0216 0.3818,0.201 0.6935,0.201 0.2388,0 0.5194,0.613 0.5839,0.3016 0.0984,-0.4755 0.1565,-0.3107 0.6205,-0.3107 0,-0.069 -0.3704,-0.4791 -0.4289,-0.6854 -0.1456,-0.5137 -0.2073,-0.6828 -0.6204,-0.8956 -0.1746,-0.09 -0.1041,-0.218 -0.0639,-0.4021 0.0689,-0.3147 -0.1818,-0.3514 -0.2372,-0.6488 0.1292,-0.671 2.6232,-2.0491 3.2756,-2.2116 1.4298,-0.356 2.9178,0.1251 4.3066,0.3838l2.0804 0.5575c0.9872,0.2644 1.6212,1.1862 2.4453,1.7546 0.3809,0.2626 0.6265,0.6258 1.0675,0.8225 0.4338,0.1936 0.9816,0.356 1.3413,0.6763 0.6252,0.8569 2.2954,0.6762 3.2574,0.6762 0.7852,0 0.1803,-0.4879 0.3832,-0.8042 0.1746,-0.272 0.5901,-0.2723 0.8668,-0.4386 0.4696,-0.2824 0.4301,0.021 0.8394,0.0365 0.6253,0.0236 0.9702,-0.3805 1.761,-0.2376 0.9195,0.1661 1.4516,1.0618 2.1351,1.581 0.3098,0.2354 0.6751,-0.4758 1.031,-0.2559l1.1679 0.722c0.1952,0.3446 0.8357,0.7067 1.1497,0.9778 1.2004,1.0361 2.7012,1.7188 3.9052,2.8239 0.4346,0.5573 1.4121,1.7137 2.0986,1.8917 0.6706,0.1738 1.5222,0.5391 2.0164,1.0875 0.3362,0.3732 0.478,0.2284 0.9216,0.2284 0.2166,0 0.8943,0.5686 1.3139,0.658 0.4816,0.1027 1.0877,-0.1958 1.6058,-0.1462 1.3936,0.1335 2.1865,1.3423 3.23,2.0379 0.3399,0.8266 1.8634,1.4622 2.0256,2.367 0.1523,0.8501 0.5439,0.7337 1.323,0.7676 0.7004,0.0304 1.1511,-0.3812 1.7793,-0.594 0.3454,-0.1169 1.3778,0.1034 1.7336,0.1919 0.3097,0.0771 0.5927,0.4212 0.8029,0.6671 0.3227,0.3777 0.903,0.2052 1.2683,0.7128 0.3258,0.4526 0.8221,0.7428 1.104,1.252 0.5577,0.5585 1.3382,1.1296 2.1351,0.5666 0.3609,-0.2549 0.4689,-0.5253 0.6661,-0.9047 0.2102,-0.4046 0.4663,-0.6507 0.8029,-0.9504 0.4515,-0.137 1.3202,-0.2079 1.5147,-0.7128 0.17,-0.4412 -0.0372,-0.8139 0.3832,-1.1881 0.6752,-0.6012 1.5907,-0.9894 2.3905,-1.4347 1.1093,-0.6178 2.8924,-0.0463 2.8924,-1.6816 0,-0.6026 0.6185,-0.6197 0.9489,-1.0143 0.3451,-0.412 0.1372,-0.8507 0.5384,-1.2886 0.3866,-0.2907 1.3203,-0.8137 1.4416,-1.252 0.1593,-0.5751 -0.173,-0.9233 0.365,-1.4622 0.6187,-0.6196 1.3651,-1.6528 2.2902,-1.517 0.8121,0.1191 1.0873,-0.6069 1.5876,-1.1423 0.3359,-0.3593 0.8143,-0.0061 1.1314,-0.5118 0.3159,-0.5036 1.4334,-0.541 1.8522,-0.923l1.5329 -1.3982c0.391,-0.3783 0.693,-0.8475 1.1041,-1.1789 0.5134,-0.414 1.0512,-0.4891 1.6058,-0.8316 0.532,-0.3287 0.7573,-0.461 1.3322,-0.6306 0.224,-0.0661 0.6665,0.1738 0.9033,0.2285 0.7,0.162 0.4678,-0.823 1.4599,-0.5301 0.495,0.1462 0.9943,-0.0108 1.469,0.2742 0.1999,0.1199 0.527,0.3564 0.7573,0.3564 0.218,0 0.2718,-0.673 0.4562,-0.9504 0.3979,-0.5982 0.3027,-0.9505 0.9854,-1.4622 0.3315,-0.2372 0.5104,-0.9636 1.0584,-0.9048 0.5501,0.0591 -0.8089,1.3614 -0.8668,1.4805 -0.29,0.597 -0.3526,0.7529 -0.9671,1.0601l0 0.0274c-0.0216,0 0.1365,0.0166 0.1733,0.0274 0.5036,0.1485 0.8492,-0.3499 1.0676,-0.6854 0.2058,-0.3161 0.7169,-0.3322 0.812,-0.7219 0.2465,-1.0104 0.5511,-2.4598 0.0913,-3.4636 -0.3624,-0.791 -0.9623,-0.8697 -1.7793,-0.9504 -0.9667,-0.0954 -1.6609,0.8411 -2.2537,1.4713 -0.3278,0.5548 -1.2507,0.4336 -1.834,0.4935 -0.5145,0.0529 -1.0927,-0.0123 -1.3321,-0.4935 -0.0651,-0.1307 -0.5274,-0.9652 -0.6752,-0.6854 -0.092,0.1744 -0.1367,1.051 -0.4745,0.9778 -0.213,-0.0462 -1.3839,-0.7084 -1.396,-0.923 -0.0197,-0.3471 0.2806,-1.0339 0.5384,-1.2611 0.2135,-0.188 0.4577,-0.7766 0.7299,-0.5118 0.6796,0.6609 0.9909,0 1.6424,0 0.3221,0 0.5722,-0.0054 0.8577,0.1006 0.2032,0.0755 0.2816,0.2874 0.5018,0.2558l0.0182 -0.0182c0,-0.3919 0.0639,-0.7694 0.0639,-1.1515 0.2199,-0.5879 0.1072,-0.5278 0.7391,-0.5483 0.6394,-0.0207 1.0669,-1.2347 1.9161,-1.4531 0.2204,-0.0567 0.5612,0.1462 0.8212,0.1462 0.7314,0 1.8999,-1.4199 2.3814,-1.9282 0.3436,-0.3629 0.7516,-0.692 1.2591,-0.7128 0.6175,-0.0253 0.6673,-0.3188 0.8212,-0.8591 0.4028,-0.6653 0.9837,-1.5548 1.8888,-1.4804 0.2826,0.0232 0.9894,0.4249 1.2317,0.201 0.1195,-0.1103 -0.5919,-0.5766 -0.2372,-0.8133 0.1487,-0.0993 0.5056,0.0505 0.7117,0.0914 0.7495,0.1488 1.2956,1.3911 1.2956,2.1201 -0.0438,0.5012 0.4079,1.2882 0.6022,1.7455 0.2528,0.5947 0.3242,0.8884 0.9946,1.0235 1.1808,0.2379 2.7444,3.0599 2.5183,4.277 -0.2214,0.5283 -0.2769,1.4395 -0.8029,1.7272 -0.4445,0.243 -0.575,0.5871 -0.7482,1.06 -0.1291,0.3523 -0.4285,0.4133 -0.7026,0.6032 -0.8255,0.5721 -0.548,1.7271 -1.3048,2.4218 -0.0831,0.1613 -0.6708,0.7102 -0.5748,0.8224 0.9368,1.0938 -3.1388,2.4862 -3.9964,2.5132 -2.1682,0.0682 -2.5146,-2.1842 -4.5713,-2.1842 -0.4787,0 0.8514,0.6596 1.0037,0.8134l2.0347 2.0562c0.5603,0.5661 1.6778,1.485 2.0894,2.1567 0.1947,0.3283 0.4629,0.5826 0.657,0.923 0.2488,0.4361 -0.0434,0.5209 0.5657,0.5209 0.3139,0 0.4458,0.2626 0.7299,0.329 0.2467,0.0576 0.5576,-0.2608 0.8121,-0.3107 0.4675,-0.0916 0.9843,0.1 1.4143,-0.0914 0.598,-0.2661 0.7333,-1.2457 1.0675,-1.7181 0.2089,-0.2951 0.4157,-0.1672 0.6843,-0.3015 0.318,-0.159 0.2866,-0.3838 0.4471,-0.6854 0.5988,-0.4224 1.2369,-0.8751 2.0073,-0.6306l1.4964 0.4752c0.3012,0.0955 0.9002,0.3723 0.6114,-0.1645 -0.1262,-0.2348 -0.4627,-0.4182 -0.6387,-0.658 -0.2858,-0.3896 -0.1481,-0.2359 0.1459,-0.3655 0.4594,-0.2024 -0.8689,-2.2286 -0.4835,-2.4218 0.1103,-0.0552 0.503,0.0733 0.7299,-0.0183 0.4054,-0.1635 0.146,-0.7724 0.146,-1.0966 0,-0.3538 0.5224,-0.657 0.6843,-1.0053 0.1697,-0.2591 0.1982,-1.149 0.5018,-0.6762 0.1223,0.1903 0.2669,0.6214 0.5201,0.6214 0.2172,0 0.3419,-0.5208 0.5566,-0.6306 0.095,-0.0485 0.2265,0.2833 0.4653,0.2833 0.3921,0 0.7106,-1.1829 1.0767,-0.7311 0.2607,0.3216 0.5129,0.6246 0.9672,0.5941 0.3274,-0.0219 0.6894,-0.3279 1.0401,-0.393 0.3308,-0.0613 0.7629,0.539 1.0858,0.7128 0.4708,0.2536 0.2982,0.6939 0.438,1.1149 0.0873,0.4952 0.5013,0.6714 0.6113,1.1698 0.1938,0.8786 -0.5257,1.4392 0.3832,2.0105 0.5797,0.3645 0.2675,0.7534 -0.0364,1.2246 -0.2363,0.3666 -0.4004,0.6123 -0.8851,0.5574 -0.353,-0.0399 -0.6246,-0.0615 -0.9854,-0.0365 -0.2115,0.0147 -1.5002,-0.2569 -1.0128,0.2833 0.4384,0.4857 0.3619,0.8141 0.1642,1.4073 -0.1046,0.346 -0.3245,0.6548 -0.3102,1.0327 0.0315,0.8334 0.0949,0.6975 -0.6843,0.923 -0.5487,0.1587 -1.378,-0.0318 -1.8158,-0.4386 -0.2562,-0.2382 -0.5,-0.4291 -0.6752,-0.7403 -0.1571,-0.2788 0.0075,-0.5697 -0.0912,-0.8681 -0.4792,0 -0.9825,-0.2194 -1.5146,-0.2194 -0.51,0 -1.2667,0.0972 -1.7428,0.2559 -0.5238,0.1745 -0.9964,0.2586 -0.8211,0.9413 0.0933,0.3631 -0.126,0.5796 -0.4106,0.7219 -0.0988,0.0493 -0.6317,0.2878 -0.5475,0.457 0.0237,0.0478 0.3927,-0.0496 0.438,-0.064 0.6517,-0.2072 1.3712,-0.0811 1.9526,0.2285 0.5849,0.3116 0.5852,-0.1788 1.0401,-0.3656 0.6418,-0.2634 1.6269,-0.0216 2.0621,0.5392 0.1517,0.1956 0.5141,0.4873 0.6022,0.658 0.1101,0.2131 0.0916,0.4812 0.1825,0.6945 0.6535,0 -0.1604,-0.9856 -0.1004,-1.3525 0.1276,-0.0507 0.4485,-0.424 0.5657,-0.201 0.3928,0.7469 0.1301,0.6671 1.1041,0.6671 0.6753,0 0.9798,0.1677 1.5876,0.3473 0.6073,0.2023 1.91,1.4434 2.1351,2.0744 0.3748,1.0508 1.53,2.6868 2.7646,2.6868 1.1816,0 2.047,-1.7912 3.3121,-1.7912 0.3117,0 1.5617,0.5371 1.6789,0.8499 0.6096,1.6277 -0.8394,0.0525 -1.6332,-0.2284 -1.1548,-0.4088 -0.2204,0.4178 0.2372,0.6945 0.3321,0.2009 1.1033,0.9758 1.2865,1.3068 0.0852,0.4386 0.5861,1.0637 0.7938,1.4988l0.9946 2.0836c0.3473,0.7275 0.7277,1.2225 0.9398,2.0196 -0.0221,0.3452 -0.0704,0.9044 0.0182,1.2338 0.0986,0.3662 1.76,-0.0333 2.0347,-0.2468 0.6124,-0.4757 0.365,-0.574 0.3924,-1.2703 0.1034,-2.6276 3.2677,-0.8889 4.3888,0.0092 0.1072,0.069 0.3421,0.2833 0.4653,0.2833 0.1814,0 -0.356,-0.5951 -0.3923,-0.658 -0.2029,-0.352 -0.1187,-0.5301 -0.2099,-0.8865 -0.0536,-0.2094 -0.4657,-0.3223 -0.6387,-0.4203 -0.2003,-0.1133 0.0777,-0.2584 -0.0091,-0.4661 -0.0979,-0.2339 -0.0751,-0.3877 0.1186,-0.1097 0.2757,0.3959 0.8394,0.515 0.8394,1.0875 0,0.304 0.0979,0.6216 0.3194,0.8317 0.5134,0.4867 0.0183,0.6635 0.2646,1.1057 0.2438,0.4379 0.9523,0.7587 1.1131,1.2429 0.2664,0.7386 0.823,1.0652 0.876,1.91 0.0513,0.8167 0.884,2.2254 1.5237,2.7142 0.2424,0.1851 0.9139,0.6458 0.7117,1.0052 -0.2873,0.5108 -0.512,0.4514 -0.1642,1.0784 0.3299,0.7879 1.2311,1.5978 2.0894,1.0144 0.6893,-0.4684 0.6752,-0.9523 0.6752,-1.7272 0,-0.2758 0.0624,-0.4511 0.2555,-0.6306 0.2798,-0.26 0.1565,-0.2246 0.5566,-0.1462 0.6524,0.128 0.3151,-0.4437 0.0091,-0.6032 -0.1681,-0.0877 -0.1727,-0.4952 -0.3741,-0.658 -0.1448,-0.1169 -0.285,-0.2464 -0.4014,-0.3929 -0.136,-0.1714 0.4081,-0.3925 0.2098,-0.7128 -0.2017,-0.326 -0.1194,-0.7828 0,-1.1424 0.3288,-0.4487 0.465,-0.9806 0.8394,-1.3982 0.3751,-0.4182 0.4954,-0.3473 0.3194,-0.923 -0.2307,-0.7541 -0.5531,-1.1787 -0.3102,-2.0196 0.1285,-0.4452 0.2687,-1.0151 0.2098,-1.4714 -0.0501,-0.3889 -0.3173,-0.3754 -0.6387,-0.5117 -0.425,-0.1801 -0.1913,-0.1612 -0.4106,0.2558 -0.0967,0.1841 -0.3145,0.1385 -0.4288,0.3108 -0.1748,0.2638 -0.3102,0.5583 -0.3102,0.8955 0,0.4339 0.2268,0.7089 -0.2281,0.9139 -0.1268,0.2141 -0.6303,0.107 -0.8577,0.2376 -0.6736,0.3867 -1.0784,0.5755 -1.2683,1.3525 -0.0761,0.3114 -0.7166,0.5146 -1.0219,0.4387 -0.3182,-0.0792 -0.2184,-0.7812 -0.1369,-1.0235 0.1574,-0.4683 -0.4448,-0.4518 -0.5018,-0.7494 -0.052,-0.2712 0.0375,-0.5927 0,-0.8865 -0.0306,-0.2406 0.116,-0.6218 0.0365,-0.8224 -0.0348,-0.0881 -0.5527,0.1919 -0.6935,0.1919 -0.8202,0 -0.3782,-1.4302 -1.104,-1.7821 -0.9159,-0.4442 -0.2674,-1.6391 0.4288,-1.9648 0.4488,-0.1666 0.7372,-0.5074 1.2227,-0.5757 0.1597,-0.0225 0.0964,0.7529 0.5748,0.2193 0.1346,-0.15 1.6329,-0.7402 1.8066,-0.7402 0.5989,0 0.9158,1.7862 1.3413,1.5536 0.5503,-0.301 0.6032,-0.8201 1.4234,-0.786 0.8785,0.0366 0.6664,-0.1114 1.3686,-0.3929 0.107,0.6352 0.5062,0.1431 0.949,0.1096 0.2787,-0.0211 0.7973,-0.5317 0.9854,-0.2924 0.4356,0.5544 2.416,-0.3139 2.5183,-1.0235l0.0456 0c0,0.2019 -0.0641,0.5993 -0.3011,0.6579l0 0.0366 0.3467 0.0183c0.366,0 1.1797,-0.2307 1.4234,-0.4935 0.3717,-0.4006 0.3964,0.0963 0.1186,0.3747 -0.166,0.1663 -0.4683,0.1655 -0.5292,0.4295 -0.1038,0.45 1.5128,-0.8148 1.615,-0.8225 0.2803,-0.0211 0.9256,0.1191 0.6661,-0.3564 -0.0873,-0.1601 0.2051,-0.6477 0.365,-0.6214 0.1253,0.0205 0.1371,1.1341 1.0675,0.466 0.2691,-0.1933 1.1861,-0.5294 1.1861,-0.8681 -0.0996,-0.0251 -0.374,-0.1818 -0.374,-0.3107 0.2535,0 0.9663,-0.2703 0.7025,0.2193 -0.4319,0.8018 0.6527,-0.2031 0.8303,-0.4204l1.1953 -1.4622 3.23 -3.5824 4.1515 -4.1489 7.2903 -7.4023 2.6461 -2.4309c1.1106,-0.9791 2.0827,-1.7902 3.3577,-2.5863 1.4556,-0.909 2.973,-2.1766 4.626,-2.7507l2.2993 -0.9048 4.6352 -1.6084c1.6667,-0.5783 3.4677,-1.2885 5.2647,-1.2885l7.9381 -0.1828 2.9654 0.0457c0.7838,0.012 0.8563,-0.0103 1.5876,-0.3199 1.1319,-0.4791 2.583,-0.2193 3.7957,-0.3015l4.1789 -0.2833 4.6716 0.0091c0.7066,-0.1675 1.0557,0.4528 1.7519,0.3564 0.5567,-0.077 0.9842,-0.3198 1.6059,-0.3198 0.914,0 2.3105,-0.4348 3.1478,-0.2194 0.9912,0.2551 0.705,-0.5697 1.0493,-1.0966 0.0832,-0.1275 0.2243,0.1225 0.3468,0.1736 0.1174,0.0491 0.8787,-0.4063 1.0766,-0.4935 0.5044,-0.2222 1.2467,-0.0606 1.4143,-0.5483 0.2029,-0.59 0.9994,-0.6927 1.4872,-0.923 0.6412,-0.1248 1.3693,-1.5026 1.7154,-2.1293 0.1893,-0.343 1.4707,-2.0269 1.3686,-2.175 -0.3691,-0.5357 -0.2198,-0.8378 -0.6751,-1.2794 -0.1585,-0.1536 -0.3296,-0.3114 -0.3924,-0.5209 -0.0616,-0.2053 -0.4095,-0.1646 -0.5474,-0.3382 -0.0306,-0.0386 -0.1377,-0.1874 -0.1095,-0.2376 0.0117,-0.021 0.7458,0.0455 0.8211,0.0183 0.0971,-0.035 0.487,0.5816 0.6205,0.7859 0.3668,0.5616 0.427,-0.4297 0.6204,-0.5117 1.0227,-0.4336 0.0828,0.7083 -0.1094,1.1423 -0.4718,1.0648 0.4837,0.3623 0.885,0.2285 0.9114,-0.3041 2.172,0.3215 2.8924,-0.4295 0.6773,-0.7061 1.3654,-0.474 1.6019,-1.07l0 0 -19.5773 -9.7228 -15.8767 -8.0238 -12.5813 -6.3331c-0.2375,-0.2195 -0.6676,-0.2752 -0.9763,-0.3107 -0.3536,-0.0406 -0.4242,-0.1482 -0.7026,-0.2833 -0.1581,-0.0768 -0.3941,0.0652 -0.5383,0.1005 -0.2468,0.0603 -0.3893,-0.1186 -0.6752,0 -0.459,0.1903 -0.5713,0.0808 -0.8507,-0.2629 0.1197,-0.3095 0.454,-0.5058 0.613,-0.8246 0.2292,-0.4598 0.0546,-1.5117 0.7117,-1.6632 0.9384,-0.2163 0.7972,-1.3078 1.2774,-1.6816 0.8283,-0.6449 0.4111,-2.142 0.1095,-2.9061 -0.0179,-0.0454 -0.023,-0.0488 -0.073,-0.0548 -0.3653,-0.0443 -1.0364,-0.6413 -1.2226,-0.859 -0.1421,-0.1661 -0.2568,-0.4692 -0.2738,-0.6946 -0.0095,-0.1267 -0.1347,-0.5812 -0.1642,-0.6762 -0.158,-0.5076 -0.3285,-0.8924 -0.3285,-1.5902 0,-0.2717 -1.056,-0.8917 -1.1861,-1.1514 -0.1292,-0.258 0.0521,-0.6223 -0.0913,-0.8042 -0.0966,-0.1225 -0.8941,-0.6584 -0.8941,-0.8773 0,-0.4724 -0.2265,-0.5901 0,-1.0053 0.4641,-0.8508 -0.2054,-2.0314 -0.3468,-2.8878 -0.0957,-0.5794 -0.1374,-1.2229 -0.0547,-1.5719 0.182,-0.7677 0.1825,-1.6433 0.1825,-2.5223 0,-0.0584 -2.1181,-1.303 -0.9489,-1.9008 0.427,-0.2183 -0.3394,-0.1374 -0.438,-0.5118 -0.1057,-0.4012 0.8626,-0.9278 0.2007,-1.3342 -0.9493,-0.5829 -2.354,0.4344 -2.354,-1.2977 0,-0.2739 -1.2622,-0.9687 -1.5146,-0.9687 -0.9582,0 -0.7281,-0.4568 -1.4417,-0.7494 -0.3699,-0.1516 -0.6516,0.2198 -1.0401,-0.0183 -0.6086,-0.373 -1.1741,-0.6762 -1.9344,-0.6762 -0.3529,0 -0.6783,-0.078 -1.0401,-0.0366 -0.3568,0.0409 -0.5739,0.519 -0.584,0.5666 -0.1438,0.6731 -1.7153,-0.059 -1.7153,0.5118 0,0.3333 0.2894,0.6711 -0.0913,0.8956 -0.8091,0.4772 -0.5918,-0.1109 -1.2591,-0.1462 -0.0816,-0.0043 -0.1808,-0.0729 -0.2187,-0.1463 -0.0501,-0.0971 -0.1024,-0.1857 -0.146,-0.2833 -0.0702,-0.1572 0.0657,-0.3988 0.0365,-0.5757 -0.017,-0.1032 -0.1302,-0.1853 -0.1916,-0.2559 -0.096,-0.1103 -0.1791,-0.1348 -0.3011,-0.1645 -0.1389,-0.0339 -0.2858,-0.0122 -0.4288,-0.0183l-0.3005 -0.0329c-0.4612,0.1919 -1.0642,-0.0137 -1.5374,-0.0137 -0.214,0 -0.2973,0.1621 -0.4471,0.2833 -0.6235,0.4562 -1.0799,1.3198 -1.282,2.0152 -0.1339,0.4605 -0.7446,2.1425 -1.3094,1.284 -0.4838,-0.7352 -0.9778,-0.388 -1.6971,-0.3199 -0.1723,0.0868 -0.7888,0.1234 -0.9946,0.1234 -0.4328,0 -0.7156,-0.3701 -1.1496,-0.4295 -0.6107,-0.0835 -0.4794,-0.349 -0.8258,-0.7266 -0.5919,-0.645 -1.1323,0.8637 -1.4371,1.1059 -0.2039,0.3705 -0.4804,0.8368 -0.5748,1.2292 -0.0545,0.2263 -0.0835,0.6243 -0.2236,0.8088 -0.1315,0.1733 -0.446,0.356 -0.6548,0.2134 -0.3599,-0.2141 -0.7105,-0.4447 -1.0795,-0.6422 -0.6463,-0.346 -1.3136,1.2319 -2.354,0.4021 -0.7042,-0.5616 -1.0229,-0.7866 -2.0439,-0.7494 -0.7915,0.0288 -0.7397,-0.3277 -1.3321,-0.6762 -0.6038,-0.3552 -1.6854,-0.133 -2.1898,-0.5118 -0.4128,-0.31 -0.4564,-0.6536 -1.0584,-0.8591 -0.6871,-0.2345 -0.943,-0.187 -1.3321,-0.8773 -0.0965,-0.1713 -1.1204,-0.5117 -1.3322,-0.5117 -0.3178,0 -0.5498,0.3472 -0.7664,0.3472 -0.1003,0 -0.1643,-0.7563 -0.2372,-0.859 -0.2412,-0.3398 -0.7147,-0.1595 -1.0767,-0.0548 -0.391,0.113 -0.8095,0.0861 -1.2044,0.1827 -0.3533,0.0864 -0.6373,0.0923 -1.0037,0.2011 -1.3095,0.3889 -0.134,1.2642 -0.6934,1.9191 -0.2989,0.35 -2.0689,0.2781 -2.4635,-0.0183 -0.7787,-0.5848 -0.5191,-0.5396 -1.5147,-0.1827 -0.7091,0.2542 -0.9721,0.3771 -1.2745,0.349 -0.2352,-0.0218 -0.4946,-0.1352 -1.0065,-0.349 -0.8462,-0.3535 -1.7057,0.1769 -2.4636,-0.3656 -1.099,-0.7866 -2.4661,0.3499 -3.0657,-0.7128 -0.3511,-0.6223 -1.5412,0.1054 -2.0438,-0.6945 -0.79,-1.2572 -1.202,0.615 -2.1716,0.201 -0.7847,-0.335 -1.5694,-0.6703 -2.354,-1.0052 -0.3964,-0.1692 -0.3293,-0.7696 -0.8395,-0.9505 -0.3821,-0.1355 -2.8551,-1.0494 -2.9197,-1.5901 -0.2586,-2.164 -2.1734,-2.7294 -3.6497,-1.6815 -0.5915,0.4198 -0.9751,-0.2691 -1.4781,0.4021 -0.6384,0.8519 -1.3108,0.8042 -2.3723,0.8042 -1.5246,0 -1.7531,-1.6806 -3.3577,-0.9139 -1.3447,0.6425 -3.9016,-1.508 -4.8906,0.5118 -0.1167,0.2385 -0.5846,-0.1082 -0.9307,0.1097 -0.5456,0.3436 -0.4375,0.9886 -0.7482,1.517 -0.3819,0.6494 -0.2737,0.9275 -0.2737,1.6632 0,0.7376 -0.8247,0.461 -0.5292,1.0784 0.2257,0.4716 1.8171,3.2716 0.6752,3.2716 -0.6877,0 -1.7332,-0.5738 -2.2081,-0.4569 -0.6498,0.1599 -0.5442,0.4835 -0.7725,0.786 -0.0326,0.0431 -0.0722,0.0861 -0.1216,0.1279 -0.3945,0.3336 -0.6269,0.3045 -0.9855,0.8773 -0.4286,0.6845 -0.9215,-0.0522 -1.4051,-0.0731 -0.3249,-0.014 -0.6409,0.1623 -0.9307,0.0731 -0.577,-0.1776 -0.6735,-1.0696 -1.0219,-1.2612 -0.264,-0.1452 -0.4954,0.4895 -0.7117,0.1645 -0.1663,-0.2498 -0.0189,-0.848 -0.4744,-0.8042 -0.4815,0.0463 -0.8567,0.7831 -0.9854,-0.1096 -0.1242,-0.8611 -0.4394,-0.1659 -0.6935,-0.4204 -0.4136,-0.4143 -0.3482,-0.5851 -0.8759,-0.9504 -0.6818,-0.4719 -0.6846,0.0426 -0.9672,-0.987 -0.0716,-0.261 -0.5047,-0.5027 -0.6752,-0.7494 -0.7063,-1.0219 -1.7983,-0.5222 -2.1168,-1.7181 -0.2218,-0.8328 -0.2968,-1.847 -1.0584,-2.3943 -0.7054,-0.507 -0.1278,-0.7447 -0.3467,-1.2794 -0.4579,-1.1181 -0.8078,-0.9625 -1.7701,-1.4074 -0.5301,-0.245 -0.0539,-0.6477 -0.438,-1.0052 -0.3568,-0.3321 -0.7809,0.4018 -1.2226,-0.2193 -0.3163,-0.4447 -0.6327,-0.8896 -0.9489,-1.3343 -0.4354,-0.6121 -1.2451,-0.2331 -1.5146,-0.9504 -0.153,-0.4072 -0.9624,-1.1813 -1.3139,-1.5719 -0.4333,-0.4815 -1.3778,-1.089 -1.5694,-1.4804 -0.5026,-1.0266 -1.2668,-0.2713 -1.5329,-0.7494 -0.2106,-0.3783 -0.7454,-0.6881 -0.8029,-0.987 -0.1774,-0.9216 -1.1892,-0.5173 -1.7883,-0.9139 -0.7178,-0.4751 -1.4356,-0.9505 -2.1534,-1.4256 -0.3676,-0.2433 -0.4442,-0.7835 -0.9671,-0.9687 -1.0273,-0.364 -0.3206,-0.2646 -0.7665,-1.0235 -0.4009,-0.6823 -1.2036,0.3316 -1.7518,-0.2559 -1.0327,-1.1068 -0.6899,0.1146 -1.4781,0.4021 -0.2934,0.107 -1.5058,-1.2897 -1.6606,-1.5901 -0.665,-1.2903 -0.152,-1.2388 -0.073,-2.5589 0.0451,-0.7535 -0.2837,-0.5633 -0.6387,-1.0418 -0.2993,-0.4035 0.3102,-0.6462 0.3102,-1.0052 0,-0.2661 -0.3186,-0.4343 -0.5657,-0.2742 -0.9225,0.5978 -0.2603,0.2003 -1.0949,0.1097 -0.9645,-0.1047 -0.3554,0.5772 -1.3504,-0.1645 -0.7031,-0.5241 -1.8505,0.0885 -1.8978,-1.1149 -0.0525,-1.3355 -0.984,-1.527 -1.1862,-2.7051 -0.0854,-0.4978 -0.4927,-1.0906 -0.4927,-1.4805 0,-0.6815 0.4219,-1.1056 -0.1642,-1.6084 -0.1448,-0.1242 -0.4752,-1.744 -0.438,-1.8277 0.1196,-0.2691 0.7282,-0.0274 0.8212,-0.329 0.1265,-0.4103 -0.1666,-1.0534 -0.292,-1.4622 -0.2635,-0.8588 0.8428,-0.3393 0.365,-1.3525 -0.3636,-0.7712 0.1825,-0.8295 0.1825,-1.4988 0,-1.1839 -2.9776,-0.6088 -2.5183,-1.5901 0.556,-1.1879 -0.9625,-0.087 -1.2957,-0.7676 -0.1321,-0.2699 -0.268,-0.8796 -0.6934,-0.6946 -0.4168,0.1813 -0.2454,-0.7991 -0.8759,-0.4569 -0.7482,0.4061 -0.7898,-0.9016 -1.3322,-0.7494 -0.1912,0.0536 -0.4298,0.701 -0.7664,0.1828 -0.198,-0.3048 -0.3507,-0.3948 -0.6022,-0.1097 -0.6412,0.7268 -1.1072,-0.689 -2.0256,-0.5849 -0.2667,0.0302 -0.1332,1.1094 -0.6569,0.5849 -0.2546,-0.2549 -0.3086,-0.5839 -0.6205,-0.8773 -0.8641,-0.8128 -1.3628,1.6255 -1.8978,0.0183 -0.2801,-0.8415 -0.0225,-0.8655 -0.7299,-1.3708 -0.48,-0.3429 -0.8651,-0.3466 -1.4417,-1.0418 -0.9329,-1.1249 -0.4263,-0.1503 -0.8941,0.1462 -0.0548,0.0347 -0.0066,0.1268 -0.073,0.1462 -0.2098,0.0613 -2.4105,0.443 -1.4234,0.9139 0.3542,0.169 -0.855,1.1544 0.2555,1.3708 0.0599,0.0116 0.0609,0.105 0,0.1096 -0.7754,0.0596 -1.3621,0.987 -0.8577,1.6085 0.6608,0.8142 -1.1941,0.4803 -1.5511,0.4569 -0.8112,-0.0533 0.2685,0.8805 0.3467,1.2063 0.2971,1.2371 -4.7876,0.8218 -3.8139,-1.2429 0.1811,-0.3842 0.1342,-1.5496 -0.0183,-2.0105 -0.1076,-0.3253 -0.8029,0.399 -0.8029,-0.2559 0,-0.4499 0.1447,-0.6032 -0.365,-1.0783 -0.5948,-0.5545 0.5262,-2.0654 -1.1314,-2.0654 -0.6051,0 -0.3476,-0.4288 -0.6022,-0.6762 -0.4277,-0.4156 -0.8758,-0.387 -0.4744,-1.0784 0.3744,-0.6449 0.0568,-0.3724 -0.511,-0.6763 -0.3039,-0.1626 0.4197,-0.4831 0.4197,-0.7676 0,-0.3415 -0.4693,-0.2392 -0.5474,-0.4752 -0.2208,-0.6664 0.5666,-1.1163 0.1095,-1.7546 -0.3971,-0.5545 0.4014,-0.7147 0.4014,-1.0236 0,-0.1828 -0.1982,-0.1789 -0.146,-0.4569 0.1974,-1.0504 -0.1072,-1.3222 -1.1496,-0.9687 -1.7183,0.5828 -0.664,-1.7609 -1.8066,-1.2063 -0.6401,0.3107 -0.8987,-0.0416 -0.9307,-0.6397 -0.0257,-0.4808 0.1332,-0.955 -0.4197,-1.2612 -0.247,-0.1368 0.1958,-0.4337 0.3832,-0.6214 0.2698,-0.2701 0.2506,-0.4048 0.1546,-0.7219 -0.111,-0.3665 -0.5686,-0.7113 -0.9398,-0.8134 -0.4411,-0.1214 -0.882,0.2063 -1.0949,-0.393 -0.4267,-1.2009 -1.3214,0.4728 -2.1077,-0.0731 -0.4861,-0.3374 -0.1241,-0.7088 -0.2464,-1.124 -0.1023,-0.3473 -0.6728,-0.2285 -0.9216,-0.2285 -0.6192,0 -0.0122,-0.6465 -0.2463,-0.7951 -0.1373,-0.0871 -0.3762,0.0951 -0.438,0.2011 -0.2525,0.4327 -0.7689,0.2165 -1.1861,0.5392 -1.46,1.1292 -1.693,-0.9182 -2.5457,0.3107 -0.2066,0.2978 -0.703,0.1439 -0.9854,0.064 -0.5189,-0.1469 -0.9661,-0.42 -1.5147,-0.5484 -0.6054,-0.1417 -1.3223,-0.775 -1.9343,-0.3746 -0.4615,0.3019 -0.583,-0.1902 -1.1132,-0.1737 -0.2057,0.0064 -0.9137,0.4509 -1.1131,0.6123 -0.328,0.2656 -0.4698,0.8585 -0.8942,1.0144 -0.1789,0.0657 -0.7866,0.2165 -0.4288,0.5757 0.2105,0.2113 0.4795,0.3443 0.1824,0.658 -0.5509,0.5817 -0.9058,0.1527 -1.4872,0.5118 -0.2476,0.1529 -0.6711,0.8835 -0.9763,0.3838 -0.2286,-0.3744 0.061,-1.0352 -0.1004,-1.4713 -0.3283,-0.887 -1.7312,0.4752 -2.0529,-0.4569 -0.1723,-0.4994 -0.6479,-0.2362 -0.6935,-0.5941 -0.0593,-0.465 -0.5756,-0.1483 -0.8759,-0.4295 -0.1521,-0.1424 -0.2704,-0.1736 -0.4836,-0.1736 -0.3818,0 -0.9873,1.0372 -1.2318,0.1097 -0.0568,-0.2157 -0.8918,-0.9529 -1.0949,-1.0875 -0.2522,-0.1671 -0.7305,-0.0821 -0.885,-0.3473 -0.5051,-0.8668 -1.05,-0.3974 -1.6607,0.064 -0.4156,0.3139 -0.3547,0.0625 -0.7938,-0.0366 -0.2347,-0.053 -0.0457,-0.5362 -0.1003,-0.7128 -0.069,-0.2228 -0.5701,0.0726 -0.6661,0.1188 -0.614,0.2957 -0.7112,-0.5366 -1.1953,-0.2376 -0.4425,0.2733 -0.4229,-0.1262 -0.8029,0.064 -0.6234,0.3121 -0.1805,-0.8376 -0.803,-0.3108 -0.3618,0.3063 -0.5437,0.0994 -0.6665,-0.2243l0 0c-0.0955,-0.2517 -0.1554,-0.5743 -0.2368,-0.7809 -0.0712,-0.181 -0.3931,-0.4293 -0.5201,-0.6123 -0.154,-0.2217 -0.2117,-0.5679 -0.3855,-0.7113l-0.0131 139.731 0 0zm119.835 12.015c0.2905,-0.0414 0.8297,0.3787 1.0401,0.5392 0.2606,0.1986 0.5651,0.4177 0.7574,0 0.1064,-0.231 0.7089,-0.1145 0.9671,-0.2833 0.2867,-0.1873 -0.0019,-0.695 0.3924,-0.9504 0.5506,-0.3565 1.196,-0.1667 1.7975,-0.3382 0.3981,-0.1134 1.1251,-0.0923 0.7846,-0.594 -0.6505,-0.9582 -0.7245,-1.6276 -2.1533,-1.5536 -1.0818,0.0561 -1.4092,-0.0244 -2.2993,-0.4843 -0.2726,-0.1409 -1.0055,-0.5392 -1.2956,-0.5392 -0.6617,0 -0.3833,2.4068 -0.3833,2.8604 0,0.2325 -0.4819,2.2954 0.1551,1.4257l0.2373 -0.0823zm36.9442 12.5383c-0.2767,0.046 -0.5407,-0.0237 -0.7847,-0.2285 -0.3413,-0.2863 -0.3932,-0.0259 -0.7847,0.0823 -0.2877,0.0794 -0.627,0.0885 -0.9033,0.1736 -0.0976,0.0301 -0.633,0.1997 -0.6661,0 -0.0477,-0.2879 1.148,-0.5019 0.365,-0.8042 -0.0774,-0.0298 -0.4093,-0.0452 -0.438,-0.1097 -0.1512,-0.3399 -0.285,-0.4794 -0.6934,-0.5209 -0.121,-0.0123 -1.0202,-0.0439 -1.0037,0.1737 0.009,0.1199 1.01,0.1259 1.1953,0.2284 0.2897,0.1601 -0.2786,0.3802 -0.3924,0.4478 -0.3686,0.2188 -0.1232,0.3872 0.0639,0.5301 0.1836,0.1404 -0.0818,0.4335 0.1825,0.5391 0.443,0.1769 0.7149,0.2322 1.0767,0.5666 0.7598,0.702 1.1975,-0.2753 1.7883,-0.5666 0.2124,-0.1048 0.4362,-0.1736 0.7026,-0.1736 0.1151,0 0.6321,-0.0834 0.4653,-0.2924l-0.1733 -0.0457zm0.7755 -1.6358c-0.165,0.0253 -0.2109,0.0488 -0.3832,-0.0275 -0.3449,-0.1527 -0.5373,-0.2171 -0.9307,-0.1005 -0.437,0.1294 -0.3374,0.4337 0.0092,0.6123 0.2077,0.1071 0.5687,0.1909 0.812,0.1371 0.161,-0.0355 0.3169,-0.1363 0.4745,-0.1919 0.1948,-0.0686 0.4578,0.0026 0.6569,-0.0549 0.0724,-0.0209 0.141,-0.0626 0.1369,-0.1462 -0.0082,-0.1674 -0.1828,-0.1828 -0.3194,-0.1828l-0.4562 -0.0456zm-166.74 -169.572l264.54 0 0 190 -264.54 0 0 -190z"/>
  <polygon class="fil5 str4" points="240.208,181.767 268.583,181.767 268.583,197.696 240.208,197.696 "/>
  <g id="_222826952">
   <polygon id="_222828176" class="fil6 str3" points="241.587,187.776 248.036,187.776 248.036,188.768 241.587,188.768 "/>
   <polygon id="_222824456" class="fil7 str3" points="248.036,187.776 254.486,187.776 254.486,188.768 248.036,188.768 "/>
   <polygon id="_222829808" class="fil6 str3" points="254.486,187.776 260.935,187.776 260.935,188.768 254.486,188.768 "/>
   <polygon id="_222830336" class="fil7 str3" points="260.936,187.776 267.386,187.776 267.386,188.768 260.936,188.768 "/>
   <polygon id="_222825536" class="fil6 str3" points="251.924,190.765 262.24,190.765 262.24,191.757 251.924,191.757 "/>
   <polygon id="_222830720" class="fil7 str3" points="241.609,190.765 251.924,190.765 251.924,191.757 241.609,191.757 "/>
  </g>
  <path class="fil8" d="M250.549 184.64c-0.1846,-0.1517 -0.3039,-0.2734 -0.3574,-0.3651 -0.053,-0.0918 -0.08,-0.187 -0.08,-0.2858 0,-0.1517 0.0588,-0.2822 0.1758,-0.3922 0.117,-0.1093 0.2728,-0.1646 0.4669,-0.1646 0.1881,0 0.3398,0.0511 0.4544,0.1535 0.1153,0.1023 0.1723,0.2187 0.1723,0.3498 0,0.087 -0.0306,0.1764 -0.0929,0.2669 -0.0617,0.0906 -0.1911,0.1976 -0.3874,0.3205 0.2022,0.1558 0.3357,0.2787 0.4015,0.3686 0.0871,0.117 0.1306,0.2405 0.1306,0.3704 0,0.1641 -0.0624,0.3046 -0.1876,0.421 -0.1252,0.1164 -0.2893,0.1747 -0.4927,0.1747 -0.2217,0 -0.3945,-0.0694 -0.5186,-0.2082 -0.0988,-0.1117 -0.1482,-0.2334 -0.1482,-0.3651 0,-0.1035 0.0347,-0.2058 0.1047,-0.3075 0.0694,-0.1017 0.1887,-0.214 0.3586,-0.3369zm0.2705 -0.1841c0.1382,-0.124 0.2252,-0.2222 0.2622,-0.2939 0.0365,-0.0718 0.0547,-0.1529 0.0547,-0.244 0,-0.1206 -0.0335,-0.2147 -0.1011,-0.2829 -0.0682,-0.0687 -0.1605,-0.1029 -0.2775,-0.1029 -0.117,0 -0.2123,0.0342 -0.2858,0.1018 -0.0735,0.0676 -0.1105,0.147 -0.1105,0.2375 0,0.06 0.0153,0.1194 0.0458,0.1793 0.03,0.06 0.0735,0.1165 0.13,0.1705l0.2822 0.2346zm-0.1893 0.2493c-0.0953,0.0806 -0.1658,0.1682 -0.2117,0.2629 -0.0458,0.0946 -0.0688,0.1975 -0.0688,0.3075 0,0.1481 0.04,0.2669 0.1212,0.3557 0.0811,0.0888 0.184,0.1335 0.3092,0.1335 0.1241,0 0.2234,-0.0347 0.2981,-0.1053 0.0747,-0.07 0.1117,-0.1546 0.1117,-0.2546 0,-0.0829 -0.0217,-0.157 -0.0652,-0.2222 -0.0818,-0.1217 -0.2464,-0.2811 -0.4945,-0.4775z"/>
  <path id="1" class="fil8" d="M251.764 184.662c0,-0.2663 0.04,-0.4956 0.1205,-0.6879 0.0806,-0.1923 0.187,-0.3357 0.3205,-0.4298 0.1034,-0.0747 0.2099,-0.1123 0.3204,-0.1123 0.1787,0 0.3399,0.0917 0.4821,0.274 0.1782,0.2264 0.267,0.5327 0.267,0.9202 0,0.271 -0.0388,0.5009 -0.117,0.6902 -0.0782,0.1899 -0.1776,0.3275 -0.2987,0.4128 -0.1211,0.0858 -0.2381,0.1282 -0.351,0.1282 -0.2223,0 -0.4081,-0.1312 -0.5562,-0.3946 -0.1253,-0.2216 -0.1876,-0.4886 -0.1876,-0.8008zm0.3375 0.0429c0,0.3217 0.0394,0.5845 0.1188,0.7873 0.0652,0.1711 0.1634,0.257 0.2928,0.257 0.0623,0 0.1264,-0.0283 0.1928,-0.0835 0.067,-0.0559 0.1176,-0.1494 0.1517,-0.2799 0.0529,-0.1975 0.0794,-0.4762 0.0794,-0.8355 0,-0.2663 -0.0277,-0.4886 -0.0829,-0.6667 -0.0412,-0.1323 -0.0947,-0.2258 -0.1599,-0.2811 -0.0471,-0.0376 -0.1041,-0.0564 -0.1706,-0.0564 -0.0782,0 -0.1475,0.0347 -0.2087,0.1046 -0.0823,0.0953 -0.1387,0.2452 -0.1687,0.4498 -0.03,0.2046 -0.0447,0.4057 -0.0447,0.6044z"/>
  <path id="12" class="fil8" d="M254.859 183.367l0 1.5693 0.4016 -0.3651c0.0852,-0.0782 0.1346,-0.1276 0.1481,-0.1482 0.0095,-0.0141 0.0136,-0.0276 0.0136,-0.0411 0,-0.0236 -0.0094,-0.043 -0.0283,-0.06 -0.0188,-0.0165 -0.0499,-0.0259 -0.094,-0.0282l0 -0.0553 0.6855 0 0 0.0553c-0.094,0.0023 -0.1722,0.0164 -0.2346,0.0429 -0.0629,0.0264 -0.1317,0.0735 -0.2063,0.1417l-0.4046 0.3733 0.4046 0.5116c0.1129,0.1417 0.1887,0.231 0.2275,0.2693 0.0553,0.0535 0.1035,0.0887 0.1446,0.1046 0.0289,0.0118 0.0788,0.0177 0.15,0.0177l0 0.0617 -0.7667 0 0 -0.0617c0.0441,-0.0012 0.0735,-0.0083 0.0888,-0.02 0.0158,-0.0124 0.0235,-0.0288 0.0235,-0.0512 0,-0.0264 -0.023,-0.0688 -0.0688,-0.127l-0.4845 -0.6185 0 0.5233c0,0.1023 0.0076,0.1699 0.0218,0.2016 0.0141,0.0324 0.0346,0.0553 0.0611,0.0688 0.0265,0.0141 0.0841,0.0218 0.1723,0.023l0 0.0617 -0.8026 0 0 -0.0617c0.0805,0 0.1405,-0.01 0.1805,-0.0294 0.0241,-0.013 0.0429,-0.0324 0.0553,-0.0588 0.017,-0.0377 0.0258,-0.1035 0.0258,-0.1964l0 -1.4364c0,-0.1829 -0.0041,-0.2946 -0.0117,-0.3352 -0.0082,-0.0405 -0.0218,-0.0687 -0.04,-0.0846 -0.0182,-0.0153 -0.0423,-0.023 -0.0723,-0.023 -0.0241,0 -0.06,0.0095 -0.1082,0.0294l-0.0294 -0.0605 0.4686 -0.1929 0.0788 0z"/>
  <path id="123" class="fil8" d="M256.625 184.528c0.1152,-0.1153 0.1828,-0.1811 0.2034,-0.1982 0.0517,-0.0441 0.1076,-0.0776 0.167,-0.1017 0.06,-0.0241 0.1187,-0.0365 0.1775,-0.0365 0.0988,0 0.1841,0.0289 0.2552,0.0865 0.0712,0.057 0.1188,0.1405 0.1429,0.2499 0.1182,-0.1382 0.2181,-0.2288 0.2999,-0.2717 0.0811,-0.0429 0.1652,-0.0647 0.251,-0.0647 0.0841,0 0.1582,0.0218 0.2234,0.0647 0.0647,0.0429 0.1159,0.1135 0.1541,0.2111 0.0253,0.0664 0.0376,0.1711 0.0376,0.3134l0 0.6791c0,0.0988 0.0077,0.1664 0.0224,0.2028 0.0117,0.0253 0.0329,0.0471 0.0641,0.0647 0.0311,0.0177 0.0811,0.0271 0.1517,0.0271l0 0.0617 -0.7791 0 0 -0.0617 0.0329 0c0.0676,0 0.1206,-0.0136 0.1588,-0.04 0.0264,-0.0182 0.0452,-0.0476 0.0564,-0.0876 0.0047,-0.0194 0.0071,-0.0753 0.0071,-0.167l0 -0.6791c0,-0.1288 -0.0153,-0.2193 -0.0465,-0.2722 -0.0447,-0.0735 -0.1164,-0.11 -0.2152,-0.11 -0.0611,0 -0.1223,0.0153 -0.1834,0.0453 -0.0618,0.0306 -0.1358,0.087 -0.2234,0.1699l-0.0036 0.0188 0.0036 0.0741 0 0.7532c0,0.1076 0.0064,0.1746 0.0182,0.2011 0.0123,0.0264 0.0347,0.0488 0.0682,0.0664 0.0329,0.0177 0.0899,0.0271 0.1705,0.0271l0 0.0617 -0.7979 0 0 -0.0617c0.0876,0 0.1476,-0.0106 0.1805,-0.0312 0.0324,-0.0206 0.0553,-0.0517 0.0676,-0.0929 0.0059,-0.02 0.0089,-0.0764 0.0089,-0.1705l0 -0.6791c0,-0.1288 -0.0188,-0.2211 -0.0571,-0.2769 -0.0505,-0.0735 -0.1211,-0.1106 -0.2116,-0.1106 -0.0624,0 -0.1235,0.0165 -0.1847,0.05 -0.0952,0.0506 -0.1687,0.1076 -0.2204,0.1705l0 0.8461c0,0.1029 0.0076,0.1705 0.0217,0.2011 0.0141,0.0311 0.0359,0.0547 0.0635,0.0699 0.0282,0.0153 0.0853,0.0236 0.1717,0.0236l0 0.0617 -0.7802 0 0 -0.0617c0.0723,0 0.1229,-0.0083 0.1517,-0.0236 0.0282,-0.0152 0.0505,-0.0399 0.0652,-0.074 0.0147,-0.0341 0.0224,-0.0994 0.0224,-0.197l0 -0.6033c0,-0.1734 -0.0053,-0.2851 -0.0153,-0.3357 -0.0082,-0.0382 -0.0212,-0.0641 -0.0382,-0.0782 -0.0171,-0.0147 -0.0406,-0.0217 -0.0706,-0.0217 -0.0323,0 -0.0705,0.0088 -0.1152,0.0258l-0.0259 -0.0623 0.4751 -0.1929 0.0741 0 0 0.3364z"/>
  <path class="fil8" d="M249.621 194.654l0 0.2446 -0.3134 0 0 0.6168 -0.2846 0 0 -0.6168 -0.9883 0 0 -0.2205 1.0836 -1.5469 0.1893 0 0 1.5228 0.3134 0zm-0.598 0l0 -1.1594 -0.8196 1.1594 0.8196 0z"/>
  <path id="1" class="fil8" d="M249.87 194.361c0,-0.2663 0.04,-0.4956 0.1205,-0.6879 0.0806,-0.1923 0.187,-0.3357 0.3205,-0.4298 0.1034,-0.0747 0.2099,-0.1123 0.3204,-0.1123 0.1787,0 0.3399,0.0917 0.4821,0.274 0.1782,0.2264 0.267,0.5327 0.267,0.9202 0,0.271 -0.0388,0.5009 -0.117,0.6902 -0.0782,0.1899 -0.1776,0.3275 -0.2987,0.4128 -0.1211,0.0858 -0.2381,0.1282 -0.351,0.1282 -0.2223,0 -0.4081,-0.1312 -0.5562,-0.3946 -0.1253,-0.2216 -0.1876,-0.4886 -0.1876,-0.8008zm0.3375 0.0429c0,0.3217 0.0394,0.5845 0.1188,0.7873 0.0652,0.1711 0.1634,0.257 0.2928,0.257 0.0623,0 0.1264,-0.0283 0.1928,-0.0835 0.067,-0.0559 0.1176,-0.1494 0.1517,-0.2799 0.0529,-0.1975 0.0794,-0.4762 0.0794,-0.8355 0,-0.2663 -0.0277,-0.4886 -0.0829,-0.6667 -0.0412,-0.1323 -0.0947,-0.2258 -0.1599,-0.2811 -0.0471,-0.0376 -0.1041,-0.0564 -0.1706,-0.0564 -0.0782,0 -0.1475,0.0347 -0.2087,0.1046 -0.0823,0.0953 -0.1387,0.2452 -0.1687,0.4498 -0.03,0.2046 -0.0447,0.4057 -0.0447,0.6044z"/>
  <path id="12" class="fil8" d="M252.967 194.227c0.1152,-0.1153 0.1828,-0.1811 0.2034,-0.1982 0.0517,-0.0441 0.1076,-0.0776 0.167,-0.1017 0.06,-0.0241 0.1187,-0.0365 0.1775,-0.0365 0.0988,0 0.1841,0.0289 0.2552,0.0865 0.0712,0.057 0.1188,0.1405 0.1429,0.2499 0.1182,-0.1382 0.2181,-0.2288 0.2999,-0.2717 0.0811,-0.0429 0.1652,-0.0647 0.251,-0.0647 0.0841,0 0.1582,0.0218 0.2234,0.0647 0.0647,0.0429 0.1159,0.1135 0.1541,0.2111 0.0253,0.0664 0.0376,0.1711 0.0376,0.3134l0 0.6791c0,0.0988 0.0077,0.1664 0.0224,0.2028 0.0117,0.0253 0.0329,0.0471 0.0641,0.0647 0.0311,0.0177 0.0811,0.0271 0.1517,0.0271l0 0.0617 -0.7791 0 0 -0.0617 0.0329 0c0.0676,0 0.1206,-0.0136 0.1588,-0.04 0.0264,-0.0182 0.0452,-0.0476 0.0564,-0.0876 0.0047,-0.0194 0.0071,-0.0753 0.0071,-0.167l0 -0.6791c0,-0.1288 -0.0153,-0.2193 -0.0465,-0.2722 -0.0447,-0.0735 -0.1164,-0.11 -0.2152,-0.11 -0.0611,0 -0.1223,0.0153 -0.1834,0.0453 -0.0618,0.0306 -0.1358,0.087 -0.2234,0.1699l-0.0036 0.0188 0.0036 0.0741 0 0.7532c0,0.1076 0.0064,0.1746 0.0182,0.2011 0.0123,0.0264 0.0347,0.0488 0.0682,0.0664 0.0329,0.0177 0.0899,0.0271 0.1705,0.0271l0 0.0617 -0.7979 0 0 -0.0617c0.0876,0 0.1476,-0.0106 0.1805,-0.0312 0.0324,-0.0206 0.0553,-0.0517 0.0676,-0.0929 0.0059,-0.02 0.0089,-0.0764 0.0089,-0.1705l0 -0.6791c0,-0.1288 -0.0188,-0.2211 -0.0571,-0.2769 -0.0505,-0.0735 -0.1211,-0.1106 -0.2116,-0.1106 -0.0624,0 -0.1235,0.0165 -0.1847,0.05 -0.0952,0.0506 -0.1687,0.1076 -0.2204,0.1705l0 0.8461c0,0.1029 0.0076,0.1705 0.0217,0.2011 0.0141,0.0311 0.0359,0.0547 0.0635,0.0699 0.0282,0.0153 0.0853,0.0236 0.1717,0.0236l0 0.0617 -0.7802 0 0 -0.0617c0.0723,0 0.1229,-0.0083 0.1517,-0.0236 0.0282,-0.0152 0.0505,-0.0399 0.0652,-0.074 0.0147,-0.0341 0.0224,-0.0994 0.0224,-0.197l0 -0.6033c0,-0.1734 -0.0053,-0.2851 -0.0153,-0.3357 -0.0082,-0.0382 -0.0212,-0.0641 -0.0382,-0.0782 -0.0171,-0.0147 -0.0406,-0.0217 -0.0706,-0.0217 -0.0323,0 -0.0705,0.0088 -0.1152,0.0258l-0.0259 -0.0623 0.4751 -0.1929 0.0741 0 0 0.3364z"/>
  <path id="123" class="fil8" d="M255.644 193.066c0.0482,0 0.0894,0.0171 0.1235,0.0506 0.0335,0.0341 0.0506,0.0753 0.0506,0.1235 0,0.0482 -0.0171,0.0893 -0.0506,0.124 -0.0341,0.0341 -0.0753,0.0518 -0.1235,0.0518 -0.0482,0 -0.0893,-0.0177 -0.124,-0.0518 -0.0341,-0.0347 -0.0518,-0.0758 -0.0518,-0.124 0,-0.0482 0.0171,-0.0894 0.0512,-0.1235 0.0335,-0.0335 0.0752,-0.0506 0.1246,-0.0506zm0.1429 0.8249l0 1.2683c0,0.0988 0.0071,0.164 0.0218,0.197 0.0141,0.0329 0.0352,0.057 0.0635,0.0735 0.0282,0.0158 0.0799,0.0241 0.1546,0.0241l0 0.0617 -0.7667 0 0 -0.0617c0.077,0 0.1288,-0.0077 0.1546,-0.023 0.0265,-0.0147 0.0476,-0.0394 0.0629,-0.0741 0.0159,-0.0341 0.0236,-0.0999 0.0236,-0.1975l0 -0.6086c0,-0.1711 -0.0053,-0.2816 -0.0153,-0.3322 -0.0083,-0.037 -0.0212,-0.0623 -0.0382,-0.0764 -0.0171,-0.0147 -0.0406,-0.0217 -0.0706,-0.0217 -0.0323,0 -0.0711,0.0088 -0.117,0.0258l-0.0241 -0.0623 0.4751 -0.1929 0.0758 0z"/>
  <path class="fil8" d="M270.371 196.766c0,-0.1745 0.0447,-0.3448 0.1341,-0.5113 0.0898,-0.166 0.2178,-0.2958 0.3848,-0.3885 0.1665,-0.0927 0.3405,-0.1392 0.5216,-0.1392 0.1792,0 0.3514,0.0456 0.5165,0.1373 0.1655,0.0913 0.2939,0.2197 0.3852,0.3843 0.0917,0.1651 0.1373,0.3373 0.1373,0.5174 0,0.1802 -0.0456,0.3528 -0.1373,0.5174 -0.0913,0.1651 -0.2197,0.2935 -0.3852,0.3852 -0.1651,0.0922 -0.3373,0.1379 -0.5165,0.1379 -0.1811,0 -0.3551,-0.0466 -0.5216,-0.1397 -0.167,-0.0932 -0.295,-0.223 -0.3848,-0.3895 -0.0894,-0.166 -0.1341,-0.3368 -0.1341,-0.5113zm0.1722 0c0,0.1463 0.0376,0.2884 0.1124,0.4266 0.0748,0.1383 0.182,0.2465 0.3208,0.3246 0.1392,0.0781 0.2841,0.1171 0.4351,0.1171 0.1496,0 0.293,-0.0386 0.4304,-0.1152 0.1373,-0.0767 0.2446,-0.1839 0.3212,-0.3218 0.0767,-0.1378 0.1153,-0.2812 0.1153,-0.4313 0,-0.1496 -0.0386,-0.2935 -0.1153,-0.4313 -0.0766,-0.1378 -0.1839,-0.2446 -0.3212,-0.3208 -0.1374,-0.0762 -0.2808,-0.1143 -0.4304,-0.1143 -0.151,0 -0.2959,0.0386 -0.4351,0.1162 -0.1388,0.0776 -0.246,0.1858 -0.3208,0.3245 -0.0748,0.1388 -0.1124,0.2808 -0.1124,0.4257zm1.0362 -0.3335l0.0499 -0.1693c0.1147,0.0277 0.2065,0.0861 0.2747,0.1754 0.0686,0.0899 0.1025,0.1985 0.1025,0.326 0,0.1618 -0.0522,0.293 -0.1571,0.3942 -0.1044,0.1011 -0.2498,0.1519 -0.4351,0.1519 -0.1213,0 -0.2267,-0.023 -0.3165,-0.0691 -0.0894,-0.0461 -0.1571,-0.1115 -0.2023,-0.1962 -0.0456,-0.0851 -0.0682,-0.1825 -0.0682,-0.2916 0,-0.1223 0.0292,-0.2239 0.0875,-0.3048 0.0583,-0.0804 0.1373,-0.1359 0.2375,-0.1651l0.04 0.1641c-0.0682,0.0273 -0.1199,0.0683 -0.1566,0.1219 -0.0363,0.0536 -0.0541,0.1166 -0.0541,0.1895 0,0.1054 0.0376,0.1924 0.1129,0.2611 0.0752,0.0682 0.1834,0.1025 0.3236,0.1025 0.1406,0 0.2469,-0.0324 0.3194,-0.0969 0.0719,-0.0649 0.1081,-0.1486 0.1081,-0.2516 0,-0.0828 -0.024,-0.1552 -0.0719,-0.2178 -0.0475,-0.0626 -0.1124,-0.1039 -0.1943,-0.1242z"/>
  <path id="1" class="fil8" d="M272.425 193.811l-0.1849 0c0.1454,0.0927 0.2178,0.2291 0.2178,0.4093 0,0.1166 -0.032,0.2238 -0.0964,0.3217 -0.064,0.0978 -0.1538,0.1735 -0.2695,0.2276 -0.1153,0.0537 -0.2474,0.0805 -0.3975,0.0805 -0.1458,0 -0.2784,-0.0245 -0.3974,-0.0729 -0.119,-0.049 -0.2103,-0.1219 -0.2733,-0.2192 -0.0635,-0.0974 -0.0955,-0.2065 -0.0955,-0.3269 0,-0.088 0.0188,-0.1665 0.056,-0.2352 0.0371,-0.0692 0.0856,-0.1251 0.1453,-0.1684l-0.7248 0 0 -0.2465 2.0202 0 0 0.23zm-0.7305 0.7841c0.1877,0 0.3279,-0.0395 0.4205,-0.1185 0.0927,-0.079 0.1393,-0.1722 0.1393,-0.2799 0,-0.1081 -0.0447,-0.2003 -0.1332,-0.2761 -0.0884,-0.0757 -0.2239,-0.1138 -0.4059,-0.1138 -0.2004,0 -0.3471,0.0386 -0.4407,0.1157 -0.0941,0.0772 -0.1407,0.1722 -0.1407,0.2855 0,0.1101 0.0452,0.2023 0.135,0.2761 0.0899,0.0739 0.2319,0.111 0.4257,0.111z"/>
  <polygon id="12" class="fil8" points="271.819,193.288 271.57,193.288 271.57,192.525 271.819,192.525 "/>
  <path id="123" class="fil8" d="M272.425 192.251l-1.4633 0 0 -0.2215 0.2051 0c-0.0715,-0.0461 -0.1294,-0.1073 -0.1727,-0.1835 -0.0437,-0.0762 -0.0658,-0.1632 -0.0658,-0.2605 0,-0.1082 0.0226,-0.1971 0.0677,-0.2663 0.0452,-0.0696 0.1077,-0.1185 0.1886,-0.1467 -0.1707,-0.1162 -0.2563,-0.2667 -0.2563,-0.452 0,-0.1454 0.0404,-0.2569 0.1209,-0.3349 0.0804,-0.0781 0.2041,-0.1172 0.3711,-0.1172l1.0047 0 0 0.2465 -0.9219 0c-0.0993,0 -0.1708,0.008 -0.2145,0.024 -0.0433,0.0165 -0.0786,0.0456 -0.1054,0.0875 -0.0263,0.0423 -0.0399,0.0922 -0.0399,0.1491 0,0.103 0.0343,0.1881 0.103,0.2563 0.0682,0.0678 0.1778,0.1021 0.3283,0.1021l0.8504 0 0 0.2479 -0.9506 0c-0.1105,0 -0.1933,0.0202 -0.2484,0.0607 -0.055,0.0404 -0.0827,0.1063 -0.0827,0.1985 0,0.0696 0.0183,0.134 0.0555,0.1933 0.0366,0.0593 0.0903,0.1025 0.1608,0.1289 0.071,0.0268 0.1731,0.04 0.3062,0.04l0.7592 0 0 0.2478z"/>
  <path id="1234" class="fil8" d="M272.245 188.945c0.0781,0.0922 0.1331,0.1806 0.1655,0.2653 0.032,0.0851 0.048,0.1764 0.048,0.2737 0,0.1609 -0.039,0.2841 -0.1176,0.3707 -0.0785,0.0861 -0.1792,0.1293 -0.301,0.1293 -0.072,0 -0.1373,-0.016 -0.1966,-0.0489 -0.0593,-0.0324 -0.1068,-0.0752 -0.1425,-0.1279 -0.0358,-0.0532 -0.0631,-0.1124 -0.0814,-0.1788 -0.0127,-0.0484 -0.0254,-0.1218 -0.0372,-0.2201 -0.024,-0.2004 -0.0522,-0.3481 -0.0856,-0.4426 -0.0338,-0.001 -0.0555,-0.0014 -0.0644,-0.0014 -0.1011,0 -0.1726,0.0235 -0.2136,0.0705 -0.0564,0.0631 -0.0842,0.1576 -0.0842,0.2823 0,0.1166 0.0203,0.2027 0.0612,0.2587 0.0409,0.0555 0.1133,0.0964 0.2173,0.1232l-0.0334 0.2422c-0.1035,-0.0221 -0.1877,-0.0583 -0.2512,-0.1086 -0.0639,-0.0504 -0.1133,-0.1237 -0.1477,-0.2192 -0.0343,-0.0955 -0.0517,-0.206 -0.0517,-0.3321 0,-0.1251 0.015,-0.2262 0.0442,-0.3043 0.0296,-0.0781 0.0663,-0.1355 0.111,-0.1726 0.0447,-0.0367 0.1007,-0.0621 0.1689,-0.0772 0.0423,-0.008 0.1185,-0.0122 0.2286,-0.0122l0.3306 0c0.231,0 0.3768,-0.0052 0.4375,-0.016 0.0611,-0.0104 0.1199,-0.0315 0.1759,-0.0626l0 0.2592c-0.0513,0.0254 -0.1115,0.0423 -0.1806,0.0494zm-0.5541 0.0207c0.0371,0.0903 0.0682,0.2253 0.0941,0.405 0.0145,0.102 0.031,0.1745 0.0493,0.2163 0.0184,0.0424 0.0452,0.0753 0.081,0.0979 0.0352,0.023 0.0743,0.0348 0.1175,0.0348 0.0664,0 0.1214,-0.0254 0.1656,-0.0753 0.0438,-0.0498 0.0659,-0.1232 0.0659,-0.2196 0,-0.0955 -0.0207,-0.1807 -0.0626,-0.255 -0.0419,-0.0743 -0.0992,-0.1293 -0.1717,-0.1641 -0.056,-0.0268 -0.1387,-0.04 -0.2479,-0.04l-0.0912 0z"/>
  <path id="12345" class="fil8" d="M272.986 188.331l-2.024 0 0 -0.2257 0.19 0c-0.0743,-0.0532 -0.1303,-0.1134 -0.1674,-0.1807 -0.0372,-0.0668 -0.056,-0.1481 -0.056,-0.2436 0,-0.1251 0.0324,-0.2352 0.0964,-0.3307 0.0645,-0.0959 0.1552,-0.1679 0.2724,-0.2163 0.1171,-0.049 0.2455,-0.0734 0.3852,-0.0734 0.1496,0 0.2846,0.0268 0.4045,0.0809 0.1199,0.0536 0.2117,0.1317 0.2756,0.2342 0.0635,0.1026 0.0955,0.2103 0.0955,0.3232 0,0.0827 -0.0174,0.1566 -0.0522,0.2224 -0.0348,0.0659 -0.079,0.1195 -0.1322,0.1619l0.7122 0 0 0.2478zm-1.2841 -0.2243c0.1881,0 0.3274,-0.0381 0.4177,-0.1143 0.0898,-0.0762 0.135,-0.1689 0.135,-0.2771 0,-0.11 -0.0466,-0.2046 -0.1402,-0.2831 -0.0931,-0.0786 -0.2375,-0.1181 -0.4332,-0.1181 -0.1868,0 -0.326,0.0386 -0.4191,0.1152 -0.0927,0.0767 -0.1392,0.1684 -0.1392,0.2747 0,0.1059 0.0493,0.1995 0.1481,0.2808 0.0988,0.0814 0.2427,0.1219 0.4309,0.1219z"/>
  <path id="123456" class="fil8" d="M271.988 186.86l-0.0385 -0.2451c0.0983,-0.0136 0.1735,-0.0522 0.2262,-0.1152 0.0522,-0.0626 0.0786,-0.1505 0.0786,-0.2639 0,-0.1138 -0.0236,-0.1985 -0.0697,-0.2535 -0.0465,-0.0551 -0.1011,-0.0828 -0.1632,-0.0828 -0.0564,0 -0.1002,0.0245 -0.1326,0.0734 -0.0221,0.0338 -0.0499,0.1185 -0.0837,0.2535 -0.0461,0.1816 -0.0857,0.3081 -0.1195,0.3782 -0.0334,0.0701 -0.08,0.1237 -0.1392,0.1599 -0.0593,0.0362 -0.1247,0.0546 -0.1962,0.0546 -0.0654,0 -0.1256,-0.0151 -0.1811,-0.0452 -0.056,-0.0296 -0.102,-0.0705 -0.1387,-0.1218 -0.0283,-0.0386 -0.0527,-0.0913 -0.0725,-0.1576 -0.0197,-0.0668 -0.0296,-0.1383 -0.0296,-0.2145 0,-0.1147 0.0169,-0.2154 0.0499,-0.3024 0.0329,-0.087 0.0776,-0.151 0.134,-0.1924 0.0569,-0.0414 0.1322,-0.0696 0.2267,-0.0851l0.0334 0.2422c-0.0752,0.0113 -0.134,0.0433 -0.1764,0.096 -0.0423,0.0526 -0.0635,0.1274 -0.0635,0.2238 0,0.1139 0.0188,0.1952 0.0565,0.2437 0.0376,0.0489 0.0818,0.0734 0.1321,0.0734 0.0325,0 0.0612,-0.0104 0.0871,-0.0306 0.0268,-0.0202 0.0484,-0.0517 0.0663,-0.095 0.0089,-0.0249 0.0301,-0.0979 0.063,-0.2192 0.0471,-0.1755 0.0852,-0.2977 0.1153,-0.3669 0.0296,-0.0696 0.0733,-0.1242 0.1302,-0.1637 0.057,-0.0395 0.1275,-0.0592 0.2122,-0.0592 0.0828,0 0.1604,0.0244 0.2338,0.0724 0.0729,0.0484 0.1293,0.1181 0.1693,0.2088 0.04,0.0908 0.0597,0.1938 0.0597,0.3086 0,0.1905 -0.0395,0.3354 -0.1185,0.4351 -0.079,0.0997 -0.1961,0.1632 -0.3514,0.1905z"/>
  <polygon id="1234567" class="fil8" points="272.425,185.28 272.143,185.28 272.143,184.997 272.425,184.997 "/>
  <path id="12345678" class="fil8" d="M271.889 183.611l0.032 -0.2437c0.1679,0.0264 0.2996,0.0946 0.3946,0.2047 0.095,0.1095 0.1425,0.2445 0.1425,0.4045 0,0.1999 -0.0654,0.3612 -0.1961,0.4826 -0.1308,0.1218 -0.3185,0.1829 -0.563,0.1829 -0.1581,0 -0.2964,-0.0263 -0.4149,-0.0785 -0.1185,-0.0527 -0.2074,-0.1322 -0.2667,-0.2394 -0.0593,-0.1068 -0.0889,-0.2235 -0.0889,-0.349 0,-0.159 0.0404,-0.2893 0.1209,-0.39 0.0804,-0.1011 0.1942,-0.166 0.3424,-0.1947l0.0372 0.2413c-0.0983,0.023 -0.1722,0.0635 -0.222,0.1218 -0.0494,0.0583 -0.0744,0.1289 -0.0744,0.2117 0,0.1251 0.0447,0.2267 0.1346,0.3048 0.0893,0.0781 0.2309,0.1171 0.4247,0.1171 0.1966,0 0.3396,-0.0376 0.429,-0.1134 0.0889,-0.0752 0.1336,-0.1735 0.1336,-0.2949 0,-0.0973 -0.0301,-0.1783 -0.0899,-0.2436 -0.0597,-0.0654 -0.1514,-0.1068 -0.2756,-0.1242z"/>
  <path id="123456789" class="fil8" d="M271.693 183.247c-0.2709,0 -0.4718,-0.0753 -0.6021,-0.2262 -0.1081,-0.1256 -0.1627,-0.279 -0.1627,-0.4601 0,-0.2013 0.0658,-0.3659 0.198,-0.4934 0.1317,-0.1279 0.3138,-0.1914 0.5461,-0.1914 0.1886,0 0.3368,0.0282 0.4445,0.0846 0.1082,0.0565 0.1919,0.1388 0.2517,0.2465 0.0597,0.1082 0.0893,0.2258 0.0893,0.3537 0,0.2046 -0.0654,0.3702 -0.1971,0.4967 -0.1312,0.1266 -0.3203,0.1896 -0.5677,0.1896zm0 -0.2549c0.1877,0 0.3279,-0.041 0.421,-0.1228 0.0936,-0.0819 0.1402,-0.1849 0.1402,-0.3086 0,-0.1232 -0.0471,-0.2257 -0.1407,-0.3076 -0.0936,-0.0814 -0.2366,-0.1223 -0.4285,-0.1223 -0.1811,0 -0.3184,0.0409 -0.4116,0.1233 -0.0931,0.0823 -0.1397,0.1843 -0.1397,0.3066 0,0.1237 0.0466,0.2267 0.1393,0.3086 0.0926,0.0818 0.2328,0.1228 0.42,0.1228z"/>
  <path id="12345678910" class="fil8" d="M272.425 181.585l-1.4633 0 0 -0.2215 0.2051 0c-0.0715,-0.0461 -0.1294,-0.1073 -0.1727,-0.1835 -0.0437,-0.0762 -0.0658,-0.1632 -0.0658,-0.2605 0,-0.1082 0.0226,-0.1971 0.0677,-0.2663 0.0452,-0.0696 0.1077,-0.1185 0.1886,-0.1467 -0.1707,-0.1162 -0.2563,-0.2667 -0.2563,-0.452 0,-0.1454 0.0404,-0.2569 0.1209,-0.3349 0.0804,-0.0781 0.2041,-0.1172 0.3711,-0.1172l1.0047 0 0 0.2465 -0.9219 0c-0.0993,0 -0.1708,0.008 -0.2145,0.024 -0.0433,0.0165 -0.0786,0.0456 -0.1054,0.0875 -0.0263,0.0423 -0.0399,0.0922 -0.0399,0.1491 0,0.103 0.0343,0.1881 0.103,0.2563 0.0682,0.0678 0.1778,0.1021 0.3283,0.1021l0.8504 0 0 0.2479 -0.9506 0c-0.1105,0 -0.1933,0.0202 -0.2484,0.0607 -0.055,0.0404 -0.0827,0.1063 -0.0827,0.1985 0,0.0696 0.0183,0.134 0.0555,0.1933 0.0366,0.0593 0.0903,0.1025 0.1608,0.1289 0.071,0.0268 0.1731,0.04 0.3062,0.04l0.7592 0 0 0.2478z"/>
  <rect class="fil3 str5" x="10" y="10" width="264.54" height="190"/>
 </g>
</svg>